<svg width="336" height="361" viewBox="0 0 336 361" fill="none" xmlns="http://www.w3.org/2000/svg">
<path fill-rule="evenodd" clip-rule="evenodd" d="M262.709 224.159C256.98 226.399 250.351 229.762 249.736 235.884C257.52 229.896 267.135 226.322 276.94 225.773C270.166 234.307 261.613 241.423 251.988 246.53C243.344 251.117 232.401 256.009 231.659 265.766C240.942 254.712 255.215 248.02 269.65 247.953C260.415 261.479 245.607 271.073 229.488 273.973C230.041 278.129 247.913 287.032 253.118 288.745C256.826 304.671 258.431 325.326 262.139 341.252C263.051 345.171 263.854 349.675 261.454 352.905C259.073 356.109 254.577 356.66 250.595 356.943C234.902 358.059 213.429 359.175 197.736 360.29C195.857 351.778 193.978 343.265 192.099 334.752C165.627 337.21 52.1408 363.216 31.3144 349.573C-49.0822 296.907 53.4375 278.966 55.6407 214.844C56.1459 200.142 11.941 174.441 12.6428 159.418C13.1011 149.608 14.6197 140.025 19.4733 131.602C24.327 123.178 32.018 116.689 40.3771 111.726C28.8685 108.768 20.1513 97.2957 20.3845 85.4153C20.6178 73.5349 29.7785 62.4138 41.3944 59.9095C35.9177 53.3832 27.2941 50.3919 20.9951 44.6553C13.6572 37.9725 9.9699 27.1926 12.6428 17.6344C15.3157 8.07619 24.7267 0.555965 34.6425 0.979713C42.7875 1.32778 49.9552 6.47931 55.6407 12.3221C64.4581 21.3835 71.0158 32.6275 74.5612 44.7637C76.9243 52.8529 85.585 56.9681 92.899 61.1544C100.213 65.3406 107.808 72.6326 105.748 80.8041C103.023 69.6223 143.515 82.9412 180.238 86.2016C185.114 86.6344 190.361 87.2647 193.966 90.5767C199.145 95.3364 206.921 97.0723 213.633 94.9673C215.769 100.261 217.34 106.207 215.525 111.619C213.709 117.031 207.279 121.162 202.139 118.679C203.481 125.582 204.823 132.485 206.164 139.387C219.306 139.545 232.447 139.813 245.584 140.192C252.547 140.393 259.824 140.71 265.876 144.159C271.927 147.609 280.027 142.722 286.007 130.166C282.137 150.654 286.722 158.84 294.629 161.066C294.646 160.911 295.26 160.985 295.278 160.83C297.632 140.584 311.37 122.607 330.49 115.496C328.8 119.392 316.702 127.087 308.302 136.915C300.096 146.514 296.168 159.365 295.762 161.673C308.791 158.257 313.134 167.964 335.24 159.418C325.139 171.562 305.674 174.552 292.393 166C286.128 172.987 286.478 180.725 282.04 188.994C289.579 179.623 299.591 187.931 291.649 194.004C295.864 194.409 300.422 194.964 303.479 197.894C306.537 200.824 306.613 206.991 302.669 208.533C289.349 213.741 276.029 218.95 262.709 224.159Z" fill="#FF9701"/>
</svg>
