<svg width="23" height="30" viewBox="0 0 23 30" fill="none" xmlns="http://www.w3.org/2000/svg">
<path fill-rule="evenodd" clip-rule="evenodd" d="M3.41622 8.2766C5.13062 4.70416 7.91091 1.02162 11.8617 0.71703C14.4936 0.514125 17.2859 0.974484 19.3689 2.59598C23.1467 5.53685 23.4098 11.2396 22.0598 15.8329C20.4686 21.247 16.9176 26.2614 11.8236 28.6896C10.6086 29.2687 9.28735 29.7017 7.94241 29.649C4.36856 29.5087 1.76607 25.9977 0.996661 22.5048C-0.0578234 17.7178 1.29543 12.6958 3.41622 8.2766M7.8606 28.3413C10.5022 28.701 12.9915 27.0184 14.855 25.1119C18.3479 21.5385 20.693 16.8598 21.4657 11.923C21.6883 10.5002 21.7807 9.02403 21.3936 7.63699C20.6323 4.90882 18.0462 2.9372 15.2711 2.36994C12.6024 1.82441 9.66972 2.47529 7.61258 4.26071C6.62393 5.11878 5.8561 6.2025 5.18568 7.32689C2.99884 10.9946 1.75582 15.2625 1.90807 19.53C1.97685 21.4578 2.34218 23.4174 3.31819 25.0814C4.2942 26.7453 5.94916 28.081 7.8606 28.3413Z" fill="#FFB61D"/>
</svg>
