<svg width="22" height="23" viewBox="0 0 22 23" fill="none" xmlns="http://www.w3.org/2000/svg">
<path fill-rule="evenodd" clip-rule="evenodd" d="M9.00653 9.39806C10.8384 7.9699 12.8751 6.80483 15.0348 5.94964C16.3587 5.42537 17.8696 5.02182 19.1783 5.58329C21.275 6.48289 21.6834 9.49377 20.5801 11.4909C19.4769 13.488 17.3847 14.6988 15.3928 15.8114C11.4865 17.9932 7.58017 20.1751 3.67386 22.357C4.44323 20.8216 3.57516 19.0194 2.86439 17.4561C1.26362 13.9352 0.425827 10.0698 0.425202 6.2022C0.425004 4.98045 0.516517 3.72191 1.05241 2.62396C1.58829 1.52601 2.65786 0.615446 3.87927 0.586703C5.83385 0.540707 7.13332 2.57618 7.79278 4.41672C8.37029 6.02856 8.77785 7.70123 9.00653 9.39806ZM17.2855 6.59886C14.1263 7.24073 11.1827 8.90284 9.0013 11.2765C8.78647 11.5103 8.36895 11.4073 8.17276 11.1576C7.97658 10.908 7.9389 10.5732 7.90172 10.2579C7.65547 8.16985 7.10938 6.11737 6.28543 4.183C5.82609 3.10464 5.05691 1.91377 3.88495 1.89479C3.01633 1.88072 2.26058 2.5763 1.94019 3.3838C1.61979 4.19129 1.64693 5.0902 1.70838 5.95676C2.05106 10.7897 3.32258 15.555 5.43312 19.9162C8.88874 17.9797 12.3444 16.0432 15.8 14.1067C16.8782 13.5025 17.9756 12.8833 18.8139 11.9751C19.6523 11.067 20.2037 9.80504 19.9601 8.59333C19.7166 7.38161 18.4967 6.35278 17.2855 6.59886Z" fill="#FFB61D"/>
</svg>
