<svg width="31" height="37" viewBox="0 0 31 37" fill="none" xmlns="http://www.w3.org/2000/svg">
<path fill-rule="evenodd" clip-rule="evenodd" d="M1.05384 17.9855C1.7549 13.5211 3.44931 9.13368 6.42634 5.73377C9.40337 2.33385 13.7491 0.0129651 18.2682 0.0166058C22.7873 0.0202466 27.351 2.57958 29.229 6.68997C30.2007 8.81674 30.439 11.2109 30.373 13.5482C30.2474 17.9935 29.0534 22.4049 26.9198 26.3067C24.9958 29.825 22.2299 32.9898 18.639 34.7747C15.0481 36.5595 10.5726 36.7994 7.08163 34.8261C4.31759 33.2637 2.38367 30.4594 1.46231 27.4209C0.540961 24.3825 0.561281 21.1221 1.05384 17.9855M28.6741 14.6072C28.7557 11.8392 28.299 8.98086 26.8434 6.62507C25.9585 5.19282 24.719 3.98151 23.2667 3.12982C18.5834 0.383215 12.2091 1.85872 8.31913 5.64628C4.42916 9.43384 2.74306 15.0317 2.56929 20.4582C2.4766 23.3528 2.78786 26.3208 4.01851 28.9424C5.24916 31.564 7.50097 33.8062 10.306 34.5265C13.9762 35.469 17.8494 33.6945 20.7273 31.2294C25.529 27.1161 28.4879 20.9271 28.6741 14.6072Z" fill="#FFB61D"/>
</svg>
