<svg width="8" height="12" viewBox="0 0 8 12" fill="none" xmlns="http://www.w3.org/2000/svg">
<path fill-rule="evenodd" clip-rule="evenodd" d="M3.30446 0.573808C3.69718 0.468855 4.0973 0.778617 4.26852 1.1473C4.43974 1.51599 4.45238 1.93518 4.52861 2.33447C4.82655 3.89513 6.23336 5.17567 7.81507 5.32596C8.01199 5.78438 7.57599 6.2432 7.23125 6.60386C6.44644 7.42491 5.95099 8.51726 5.85028 9.64859C5.78495 10.3826 5.63043 11.4042 4.89363 11.3946C4.30143 11.3869 4.04122 10.6705 3.82792 10.118C3.30687 8.76834 2.13153 7.68894 0.742455 7.28443C0.450837 7.19951 0.328139 6.82679 0.408426 6.53386C0.488713 6.24093 0.710956 6.01191 0.922951 5.79439C1.83555 4.85804 2.76178 3.74956 2.75195 2.44208C2.74663 1.73491 2.62126 0.756392 3.30446 0.573808Z" fill="#FFB61D"/>
</svg>
