<svg width="54" height="57" viewBox="0 0 54 57" fill="none" xmlns="http://www.w3.org/2000/svg">
<path fill-rule="evenodd" clip-rule="evenodd" d="M3.47394 15.6463C3.79079 14.898 4.14107 14.1079 4.81443 13.653C5.38245 13.2693 6.09429 13.1845 6.77578 13.1105C8.7984 12.8909 10.821 12.6713 12.8436 12.4516C13.8438 12.343 15.1349 11.9213 15.0969 10.916C14.9742 7.669 15.2254 3.92939 17.8048 1.95327C20.1644 0.145483 23.6978 0.641407 26.119 2.36597C28.5401 4.09052 30.0739 6.77642 31.3969 9.43832C31.9827 10.6171 33.5871 10.8318 34.8837 10.6046C36.1803 10.3775 37.4947 9.86732 38.7738 10.178C40.7434 10.6563 41.7389 12.8072 42.4158 14.7176C45.8125 24.3049 48.118 34.2996 52.3428 43.5518C53.9229 47.0122 53.4229 51.3304 51.0937 54.3381C50.8062 51.9498 51.2064 49.4826 52.2341 47.3076C52.7183 46.2828 51.1068 45.6093 49.9733 45.6122C38.4235 45.6416 26.8243 45.6746 15.4022 47.3881C15.0534 47.4404 14.6828 47.5045 14.4227 47.7427C14.1699 47.9743 14.0714 48.3249 13.9842 48.6564C13.63 50.0017 13.2758 51.3469 12.9216 52.6922C12.6997 53.535 12.8391 54.8433 13.7062 54.7555C25.0105 53.6108 36.3754 53.0649 47.7373 53.1208C48.9322 53.1267 50.5633 53.6008 50.4086 54.7856C38.3048 54.9283 26.1564 55.0744 14.1836 56.8563C12.2771 57.1401 10.9606 54.7792 11.1768 52.8639C11.3931 50.9486 12.4916 49.2306 12.8012 47.3282C13.0681 45.6884 12.7341 44.016 12.3749 42.3939C11.8039 39.8155 11.1659 37.252 10.4617 34.7067C9.77445 32.2227 9.02435 29.7566 8.27434 27.2909C7.1399 23.5612 6.00545 19.8315 4.87101 16.1019C3.31077 18.3863 2.61564 21.2467 2.95352 23.9924C3.18876 25.904 3.89759 27.7195 4.42863 29.5709C5.18781 32.2177 5.58631 34.9522 5.98273 37.677C6.76357 43.0439 7.54441 48.4109 8.32524 53.7779C8.44017 54.5678 8.21352 55.731 7.42385 55.6144C3.91362 44.7554 4.87733 32.7496 0.734558 22.1159C1.64769 19.9593 2.56081 17.8028 3.47394 15.6463ZM29.6177 17.6164C30.7619 16.9801 31.3542 15.4951 30.962 14.246C30.5698 12.997 29.2349 12.1171 27.9324 12.249C24.7387 12.5726 21.5451 12.8962 18.3515 13.2197C18.0566 13.2496 17.7266 13.2985 17.5494 13.5361C17.4098 13.7234 17.407 13.9767 17.4205 14.21C17.5054 15.6693 18.0118 17.1017 18.8629 18.2902C19.5243 19.2136 20.439 20.319 19.9226 21.3306C19.2774 22.5947 17.1567 21.8862 16.6307 20.568C16.1048 19.2498 16.479 17.7621 16.3812 16.3462C16.2834 14.9303 15.2656 13.3005 13.8661 13.5361C11.5707 13.9225 9.27527 14.3089 6.97987 14.6953C6.6503 14.7508 6.22028 14.9541 6.31693 15.2741C9.11198 24.5259 11.907 33.7778 14.7021 43.0296C15.0504 44.1826 15.8357 45.6098 17.0086 45.3359C27.7745 42.8217 39.126 45.1996 50.0574 43.5472C46.7828 33.2792 43.3946 23.0473 39.8937 12.8542C39.7904 12.5534 39.6734 12.2336 39.4167 12.0459C39.1323 11.8381 38.7501 11.8443 38.3982 11.8592C36.7585 11.9287 35.1187 11.9982 33.479 12.0677C32.8302 12.0951 31.9459 12.4043 32.088 13.0379C32.5337 15.0244 32.9793 17.0108 33.4249 18.9973C33.5015 19.339 33.5767 19.705 33.4493 20.0313C33.1027 20.919 31.795 20.6951 30.9229 20.3109C30.3507 20.0587 29.7487 19.7827 29.3951 19.2669C29.0415 18.7512 29.0713 17.9203 29.6177 17.6164ZM25.3917 3.20418C24.1341 2.28149 22.4805 1.61635 21.0291 2.18765C20.5232 2.3868 20.0842 2.72153 19.6524 3.05207C18.8836 3.64072 18.0914 4.25629 17.6378 5.11176C17.2157 5.90772 17.1289 6.8328 17.05 7.73028C16.981 8.51472 16.9121 9.29917 16.8431 10.0836C16.8003 10.5701 16.783 11.1288 17.1356 11.4665C17.4741 11.7906 18.0051 11.7672 18.4715 11.7228C21.8117 11.4051 25.1518 11.0874 28.4919 10.7697C28.968 10.7244 29.5498 10.5951 29.6751 10.1336C29.7245 9.95134 29.6846 9.75797 29.64 9.5745C29.0246 7.04317 27.4921 4.74524 25.3917 3.20418ZM24.1408 11.5023C23.8046 11.5972 24.1783 12.2277 24.4229 11.9783C24.7355 11.8501 24.3889 11.2628 24.1256 11.4744L24.1408 11.5023Z" fill="#FFB61D"/>
</svg>
