<svg width="6" height="8" viewBox="0 0 6 8" fill="none" xmlns="http://www.w3.org/2000/svg">
<path fill-rule="evenodd" clip-rule="evenodd" d="M5.29739 3.88558C4.55003 4.86252 3.76844 6.14584 4.34206 7.23392C4.54725 7.62314 4.01636 8.07631 3.59387 7.95344C3.17138 7.83058 2.93119 7.38418 2.81874 6.9588C2.7063 6.53342 2.66963 6.07698 2.44392 5.69929C2.21822 5.32159 1.70558 5.05901 1.33224 5.29185C0.800804 5.22881 0.746165 4.42806 1.05501 3.99102C1.36385 3.55397 1.8714 3.25352 2.06125 2.75317C2.21158 2.35696 2.1309 1.91246 2.20217 1.49473C2.27343 1.077 2.62883 0.631006 3.03894 0.737692C3.02492 1.47183 3.11034 2.23359 3.4827 2.86645C3.85507 3.4993 4.56831 3.9728 5.29739 3.88558Z" fill="#FFB61D"/>
</svg>
