<svg width="14" height="11" viewBox="0 0 14 11" fill="none" xmlns="http://www.w3.org/2000/svg">
<path fill-rule="evenodd" clip-rule="evenodd" d="M7.45067 2.43918C8.03493 1.75985 8.76864 1.17845 9.62984 0.93108C10.491 0.683709 11.49 0.814059 12.1624 1.40619C12.8941 2.05044 13.1239 3.12686 12.968 4.08921C12.8121 5.05155 12.3269 5.92602 11.8162 6.75646C11.1536 7.83402 10.434 8.87654 9.6614 9.87822C9.4201 10.1911 9.15531 10.5137 8.78561 10.6531C8.29733 10.8372 7.75314 10.658 7.27165 10.4568C5.57977 9.74963 4.00738 8.75755 2.64073 7.53494C1.38925 6.41537 0.234901 4.77463 0.742031 3.17387C1.06514 2.15397 2.05164 1.41629 3.10984 1.25881C4.16805 1.10134 5.26454 1.47419 6.10605 2.13484C6.50865 2.45092 7.1169 2.82724 7.45067 2.43918M2.10585 3.03165C1.3069 4.13087 2.17416 5.67077 3.18094 6.58347C4.43715 7.72228 5.92868 8.56363 7.40637 9.39512C7.59627 9.50197 7.80845 9.61259 8.02143 9.56662C8.21126 9.52565 8.3519 9.37012 8.47715 9.22172C9.47812 8.03568 10.3747 6.76163 11.1533 5.41908C11.7522 4.38631 12.1919 2.86895 11.227 2.16592C10.4636 1.60972 9.35076 2.05788 8.7035 2.74575C8.05624 3.43363 7.64905 4.33189 6.94174 4.95785C6.38928 4.08731 5.80206 3.18282 4.90649 2.67194C4.01091 2.16105 2.71204 2.19763 2.10585 3.03165H2.10585Z" fill="#FFB61D"/>
</svg>
