<svg width="27" height="27" viewBox="0 0 27 27" fill="none" xmlns="http://www.w3.org/2000/svg">
<path fill-rule="evenodd" clip-rule="evenodd" d="M9.25085 25.933L6.3478 12.3104C6.3478 12.3104 6.21222 15.1196 4.67534 16.2622C3.13846 17.4047 0.0998344 16.9554 0.0998344 16.9554C0.0998344 16.9554 -0.381465 7.44289 1.75753 4.54624C3.89653 1.64958 6.00358 4.38521 10.0664 3.45864C14.1256 2.53286 13.2848 -0.516397 18.0016 0.841531C22.7185 2.19946 26.2036 12.2943 26.2036 12.2943C26.2036 12.2943 22.5054 13.5336 20.9317 13.2157C19.3581 12.8978 19.7418 10.989 19.7418 10.989C19.7418 10.989 18.6265 10.5143 18.9108 13.8612C19.0489 15.487 20.2796 17.9322 20.9317 21.1307C21.1746 22.3219 20.9317 24.9985 20.9317 24.9985C20.9317 24.9985 16.7345 25.4267 13.1075 26.203C9.48057 26.9794 9.25085 25.933 9.25085 25.933Z" fill="#E7EAEE"/>
</svg>
