<svg width="31" height="14" viewBox="0 0 31 14" fill="none" xmlns="http://www.w3.org/2000/svg">
<path fill-rule="evenodd" clip-rule="evenodd" d="M30.0163 7.7363C29.611 9.10795 28.2638 9.95603 26.979 10.5844C20.549 13.7294 12.9898 14.4993 6.05776 12.7153C3.72953 12.1161 1.07704 10.7301 0.977405 8.32808C0.904161 6.56222 2.31366 5.0824 3.80627 4.13597C6.09601 2.6841 8.76538 1.95095 11.4269 1.43382C16.5614 0.436161 22.1273 0.230287 26.7752 2.62941C28.7222 3.63439 30.6372 5.63508 30.0163 7.7363M2.5647 8.06096C2.56871 10.001 4.73308 11.137 6.60959 11.6292C13.1264 13.3386 20.2547 12.601 26.2834 9.59352C27.2509 9.11091 28.2718 8.47459 28.5792 7.43806C28.992 6.04579 27.9132 4.64342 26.7163 3.82099C23.114 1.34562 18.349 1.68427 14.003 2.14951C10.5056 2.5239 6.77866 3.01314 4.11261 5.30746C3.28872 6.01649 2.56246 6.97399 2.5647 8.06096L2.5647 8.06096Z" fill="#00160A"/>
</svg>
