<svg width="39" height="10" viewBox="0 0 39 10" fill="none" xmlns="http://www.w3.org/2000/svg">
<path fill-rule="evenodd" clip-rule="evenodd" d="M38.1024 1.75306C38.3047 2.05541 38.3508 2.43249 38.3914 2.794C38.4859 3.6359 38.5805 4.4778 38.675 5.3197C38.7872 6.31862 38.8103 7.52693 37.9823 8.09676C37.5408 8.40053 36.9715 8.42545 36.4358 8.43993C25.1668 8.7444 13.8978 9.04887 2.62883 9.35334C1.90382 9.37293 1.06478 9.34164 0.620374 8.76846C0.34147 8.40874 0.298525 7.92495 0.272391 7.47052C0.190293 6.043 0.167426 4.61208 0.20387 3.18266C0.209416 2.96509 0.222108 2.73093 0.357135 2.56024C0.519116 2.35547 0.804195 2.30539 1.06292 2.27034C12.7066 0.693073 24.5073 0.276603 36.2332 1.02911C36.9255 1.07353 37.7166 1.17652 38.1024 1.75306M37.6394 7.22986C36.4949 6.61167 37.648 4.79934 37.2319 3.56698C36.8744 2.50828 35.5157 2.25777 34.4 2.19425C23.7745 1.58926 13.0932 1.96664 2.53688 3.32001C2.14805 3.36986 1.71687 3.44472 1.48075 3.75764C1.24748 4.0668 1.28964 4.49601 1.34274 4.87966C1.42493 5.47342 1.50712 6.06719 1.58932 6.66096C1.65409 7.12891 1.75295 7.65371 2.14604 7.91572C2.43108 8.10571 2.79813 8.10384 3.14059 8.09525C14.6402 7.80679 26.1398 7.51833 37.6394 7.22986Z" fill="#00160A"/>
</svg>
