<svg width="46" height="47" viewBox="0 0 46 47" fill="none" xmlns="http://www.w3.org/2000/svg">
<path fill-rule="evenodd" clip-rule="evenodd" d="M43.7836 0.89687C44.1348 0.878247 44.5117 0.865923 44.8091 1.05371C45.1766 1.2858 45.3108 1.74817 45.4167 2.16977C45.6484 3.09294 45.8815 4.0533 45.6949 4.98665C45.5083 5.91999 44.7719 6.81645 43.821 6.85801C41.3954 6.96401 38.9699 7.07002 36.5443 7.17602C35.5931 7.21759 34.4787 7.3533 34.006 8.17981C33.6856 8.73995 33.781 9.43533 33.8859 10.072C34.1833 11.8766 35.0238 14.1579 36.8514 14.0915C38.0671 14.0474 39.1507 14.9703 39.674 16.0684C40.1973 17.1666 40.2756 18.4164 40.3451 19.6309C40.4106 20.7741 40.1189 22.3367 38.9742 22.3652C38.0509 22.3882 37.7962 23.6358 37.8256 24.5589C38.0295 30.9786 38.2334 37.3984 38.4373 43.8181C38.4701 44.8525 37.1446 45.2874 36.1149 45.3914C27.4861 46.2623 18.7674 46.2394 10.1433 45.323C9.83402 45.2901 9.43909 45.1689 9.43225 44.8579C9.27263 37.6041 9.11301 30.3503 8.95339 23.0965C8.94409 22.6739 8.73659 22.0892 8.32881 22.2007C7.04356 22.552 5.7513 21.3593 5.48516 20.0537C5.21902 18.7482 5.67554 17.4156 6.12541 16.1615C6.33337 15.5817 6.56677 14.967 7.06417 14.6037C8.12635 13.828 10.0898 14.3803 10.5655 13.1541C10.6442 12.9513 10.6593 12.7293 10.6517 12.512C10.5853 10.6177 8.82126 9.12262 6.96312 8.74812C5.10498 8.37363 3.18976 8.86634 1.38023 9.43072C0.965526 7.86596 0.859247 6.22009 1.06926 4.61499C1.11882 4.23617 1.19586 3.83793 1.45041 3.55302C1.81331 3.14684 2.4179 3.09029 2.96183 3.06145C16.5691 2.33992 30.1763 1.6184 43.7836 0.89687ZM7.50393 15.5933C7.24233 15.8971 7.18432 16.3209 7.1372 16.719C7.01436 17.7568 6.89152 18.7947 6.76868 19.8325C6.74284 20.0508 6.71865 20.2812 6.80662 20.4827C6.99504 20.9141 7.56465 20.9885 8.03527 21.0002C10.5332 21.0623 13.0312 21.1243 15.5292 21.1864C15.9505 21.1968 16.3925 21.2028 16.7666 21.0089C17.3682 20.6971 17.6154 19.8497 17.2759 19.2633C17.5816 19.232 17.8873 19.2007 18.193 19.1693C18.0583 20.0744 18.9804 20.8323 19.8857 20.9654C20.7911 21.0984 21.701 20.8219 22.6132 20.7498C24.5257 20.5987 26.4356 21.3488 28.3409 21.1237C28.5414 21.1001 28.7554 21.0582 28.8957 20.913C29.0791 20.7232 29.0757 20.4263 29.0606 20.1628C28.9884 18.898 28.9162 17.6332 28.844 16.3684C28.8212 15.9701 28.7871 15.5416 28.5312 15.2356C28.1658 14.7988 27.5109 14.7849 26.9418 14.807C24.1917 14.9135 21.4415 15.0199 18.6914 15.1264C18.4994 15.1338 18.2869 15.15 18.1537 15.2886C18.0046 15.4439 18.015 15.6878 18.0352 15.9022C18.1276 16.8864 18.22 17.8707 18.3125 18.8549C17.9475 18.8902 17.5897 18.997 17.265 19.1674C17.1838 18.3918 17.1026 17.6162 17.0214 16.8406C16.9474 16.1337 16.6703 15.2278 15.9596 15.2183C13.6898 15.188 11.42 15.1577 9.1502 15.1274C8.56019 15.1196 7.889 15.1462 7.50393 15.5933ZM20.581 23.2233C20.5432 22.701 20.3169 22.01 19.7962 22.0659C16.5597 22.4138 13.2838 22.3938 10.0518 22.0065C10.1315 29.0493 10.2627 36.0915 10.4454 43.1324C10.4689 44.0385 11.6126 44.4014 12.5143 44.4938C15.193 44.7684 17.8903 44.8621 20.5817 44.774C20.8024 44.7667 21.0412 44.7515 21.2094 44.6085C21.4303 44.4205 21.4447 44.0904 21.4415 43.8004C21.3644 36.9347 21.0774 30.0714 20.581 23.2233ZM36.7666 22.8352C36.6781 22.6835 36.4763 22.6519 36.3013 22.6371C33.5171 22.4012 30.7185 22.335 27.9262 22.4389C27.6732 22.4483 27.4023 22.4654 27.202 22.6202C26.8974 22.8554 26.8788 23.3002 26.8872 23.6849C27.0412 30.7141 27.1951 37.7432 27.349 44.7723C30.4231 45.0693 33.5529 44.779 36.5199 43.9216C36.7045 43.8683 36.9003 43.805 37.0196 43.6544C37.1482 43.492 37.1569 43.2681 37.1596 43.061C37.2178 38.5386 37.101 34.0159 36.9842 29.4947C36.9292 27.3646 36.8742 25.2346 36.8192 23.1045C36.8168 23.012 36.8132 22.9151 36.7666 22.8352ZM2.2431 5.01613C1.7092 5.85554 2.28314 7.04028 3.16047 7.50927C4.03779 7.97825 5.08917 7.93271 6.08231 7.87516C12.0906 7.52699 18.0989 7.17881 24.1072 6.83064C29.8371 6.4986 35.5676 6.16652 41.2882 5.70094C42.1261 5.63274 43.0064 5.54704 43.6987 5.07006C44.391 4.59309 44.7932 3.58525 44.3289 2.88442C43.8631 2.18141 42.8614 2.14931 42.0192 2.19275C29.5346 2.83664 17.05 3.48053 4.56539 4.12441C3.703 4.16889 2.70655 4.28749 2.2431 5.01613ZM26.2583 44.6084C25.8361 37.7468 25.7525 30.8644 26.0078 23.9945C26.0225 23.5998 26.0355 23.1894 25.878 22.8272C25.4182 21.7695 23.939 21.7726 22.7993 21.949C22.2781 22.0296 21.6129 22.2787 21.652 22.8046C22.1406 29.3759 22.6295 35.958 22.5198 42.5465C22.5053 43.4189 23.0046 44.2809 23.7687 44.7023C24.5327 45.1237 25.5282 45.0862 26.2583 44.6084ZM39.1524 19.2771C39.0039 18.3704 38.8487 17.4437 38.4066 16.6384C37.9645 15.833 37.1727 15.1582 36.2552 15.1125C34.5118 15.0256 32.7684 14.9388 31.025 14.8519C30.5712 14.8293 29.944 14.9663 29.9659 15.4201C30.0323 16.7997 30.0988 18.1794 30.1652 19.559C30.1942 20.1612 30.3065 20.8884 30.8645 21.1168C31.0444 21.1905 31.2439 21.1959 31.4382 21.2004C33.7113 21.2523 35.9843 21.3043 38.2574 21.3562C38.6911 21.3661 39.0548 20.9846 39.1733 20.5673C39.2918 20.15 39.2225 19.7052 39.1524 19.2771ZM28.1469 12.4782C27.9193 11.5203 27.6822 10.5398 27.1377 9.71948C26.5931 8.89913 25.6689 8.25827 24.6869 8.33046C23.1734 8.44172 21.6599 8.55297 20.1464 8.66423C19.2035 8.73355 18.1358 8.86925 17.583 9.63632C16.9146 10.564 17.373 11.8585 17.1925 12.9876C17.1291 13.3843 17.439 13.7642 17.8099 13.9183C18.1809 14.0725 18.5977 14.0544 18.9988 14.0337C21.7082 13.8943 24.4175 13.7549 27.1268 13.6155C27.5246 13.595 28.0019 13.5225 28.1604 13.1571C28.2521 12.9456 28.2002 12.7025 28.1469 12.4782ZM32.8948 10.7431C32.3792 10.037 32.392 8.99079 32.9246 8.29752C31.9749 7.70779 30.6449 7.81688 29.804 8.55348C28.9631 9.29008 28.6799 10.5941 29.1395 11.6132C29.3015 11.9723 29.2088 12.398 29.3229 12.7751C29.485 13.311 30.0455 13.6473 30.601 13.7162C31.1566 13.785 31.7139 13.6392 32.2547 13.4946C32.9642 13.3049 33.8276 12.9256 33.8207 12.1912C33.8153 11.6054 33.2402 11.2162 32.8948 10.7431ZM15.9637 13.2571C16.2783 12.228 15.8551 11.0543 15.0473 10.3433C14.2395 9.63227 13.108 9.35527 12.0362 9.45147C11.6055 9.49012 11.1562 9.59694 10.8446 9.89671C10.533 10.1965 10.4213 10.736 10.7023 11.0647C10.9098 11.3075 11.2649 11.3784 11.4821 11.6127C11.8135 11.9703 11.7017 12.5416 11.8535 13.0049C12.1964 14.0514 13.6175 14.15 14.7142 14.0501C15.0895 14.0159 15.5038 13.9626 15.7509 13.678C15.8547 13.5584 15.9174 13.4086 15.9637 13.2571ZM16.1413 9.7948C16.3956 9.54871 16.4417 9.1165 16.245 8.82233C15.8072 8.6919 15.3175 8.95257 15.0872 9.34713C15.2585 9.7392 15.7397 9.96574 16.151 9.8479M28.636 8.70201C28.6999 8.53015 28.6623 8.32469 28.5418 8.18654C28.1263 8.05524 27.6423 8.17306 27.3336 8.48062C27.6513 8.84093 28.2291 8.93817 28.6472 8.70169L28.636 8.70201Z" fill="#00160A"/>
</svg>
