<svg width="50" height="54" viewBox="0 0 50 54" fill="none" xmlns="http://www.w3.org/2000/svg">
<path fill-rule="evenodd" clip-rule="evenodd" d="M12.8268 51.773C22.9129 50.6237 33.0639 50.0452 43.2152 50.041C45.0773 50.0402 46.6974 48.5933 47.454 46.8919C48.2106 45.1904 48.2712 43.271 48.2721 41.409C48.2756 34.4902 47.625 27.5898 46.975 20.7016C46.7115 17.9082 46.4479 15.1148 46.1843 12.3213C46.0243 10.6263 45.8546 8.89365 45.1408 7.34793C43.9023 4.66555 41.1597 2.92139 38.3023 2.17011C35.4449 1.41883 32.4418 1.5217 29.4892 1.62981C19.6864 1.98874 9.88364 2.34768 0.0808411 2.70661C5.73163 0.634359 11.886 0.537001 17.9044 0.46353C22.5184 0.407202 27.1325 0.350875 31.7465 0.294547C36.4626 0.236973 41.8516 0.4735 44.8601 4.10591C46.8036 6.45252 47.2325 9.66589 47.5574 12.6955C48.5803 22.2346 49.3296 31.803 49.8041 41.3851C49.9613 44.5606 49.8342 48.2924 47.2485 50.1425C45.8026 51.1772 43.9265 51.3325 42.1526 51.4526C31.3496 52.1844 20.5467 52.9161 9.74378 53.6479C7.20723 53.8197 4.53417 53.9664 2.25237 52.8452C1.45967 52.4558 0.645123 51.5752 1.07104 50.8014C4.58285 52.7138 8.85377 52.2257 12.8268 51.773Z" fill="#00160A"/>
</svg>
