<svg width="36" height="7" viewBox="0 0 36 7" fill="none" xmlns="http://www.w3.org/2000/svg">
<path fill-rule="evenodd" clip-rule="evenodd" d="M0.76268 6.62719C1.54516 6.01637 0.887201 4.76562 1.04146 3.78502C1.25968 2.39787 2.9859 1.92136 4.38083 1.76015C13.3407 0.724703 22.3636 0.235021 31.3828 0.294722C32.1334 0.29969 33.0204 0.38337 33.3984 1.0318C33.8522 1.81037 33.4294 3.16906 34.2884 3.44177C34.6916 3.56978 35.2088 3.33295 35.5143 3.62551C36.0196 4.10931 35.0783 4.76298 34.3816 4.82551C23.8267 5.77279 13.249 6.46597 2.66077 6.90427C2.01297 6.93109 1.3261 6.948 0.76268 6.62719M32.291 2.25612C32.0445 1.63631 31.2193 1.54539 30.5524 1.55554C22.0489 1.68494 13.5498 2.10526 5.07497 2.81552C4.08143 2.89879 2.90865 3.10603 2.49444 4.01293C2.29551 4.52868 2.67495 5.12183 3.17574 5.35589C3.67654 5.58995 4.25533 5.55975 4.80701 5.52475C13.2728 4.98772 21.7386 4.45069 30.2044 3.91366C30.7254 3.88061 31.2685 3.84101 31.7177 3.57491C32.1669 3.30882 32.4839 2.74123 32.291 2.25612Z" fill="#00160A"/>
</svg>
