<svg width="21" height="4" viewBox="0 0 21 4" fill="none" xmlns="http://www.w3.org/2000/svg">
<path fill-rule="evenodd" clip-rule="evenodd" d="M0.489304 3.67977C0.123594 3.46952 0.174225 2.87983 0.481725 2.59105C0.789225 2.30228 1.23749 2.23444 1.6563 2.18394C4.1686 1.881 6.69511 1.71453 9.22014 1.5482C10.6113 1.45655 12.0025 1.36491 13.3937 1.27327C15.2024 1.15413 17.011 1.03498 18.8197 0.91584C19.3943 0.877989 20.0357 0.861429 20.4684 1.2414C20.9011 1.62137 20.7955 2.53499 20.2207 2.5706C13.8373 2.96606 7.45387 3.36153 1.07045 3.75699C0.872425 3.76926 0.661311 3.77866 0.489304 3.67977L0.489304 3.67977Z" fill="#00160A"/>
</svg>
