<svg width="49" height="25" viewBox="0 0 49 25" fill="none" xmlns="http://www.w3.org/2000/svg">
<path fill-rule="evenodd" clip-rule="evenodd" d="M33.7066 3.93312C34.189 3.01658 34.7126 2.05519 35.5999 1.52099C36.4872 0.986777 37.8485 1.09721 38.3262 2.01615C38.8347 2.99415 38.0782 4.17308 37.19 4.82585C36.3018 5.47862 35.2096 5.93877 34.6326 6.87796C37.7515 8.93317 40.8704 10.9884 43.9893 13.0436C46.4322 14.6533 49.1962 16.9523 48.6962 19.8348C48.403 21.5248 46.9706 22.8386 45.3754 23.4691C43.7802 24.0996 42.0262 24.1655 40.3116 24.2148C28.7882 24.5466 17.2536 24.4881 5.73417 24.0395C4.93496 24.0084 4.04356 23.934 3.51115 23.3371C3.09867 22.8747 3.0135 22.2152 2.94688 21.5991C2.28385 15.4678 1.62082 9.33649 0.957792 3.20519C0.933301 2.97871 0.909986 2.74221 0.991094 2.52934C1.33216 1.6342 2.67143 2.18564 3.42011 2.78321C8.7229 7.01575 17.2005 6.5185 21.9721 1.69506C23.1251 0.529557 25.0878 0.680215 26.569 1.38294C28.0502 2.08566 29.2895 3.2288 30.7754 3.92143C30.6169 3.0623 31.3745 2.15583 32.2481 2.15931C33.1217 2.16279 33.872 3.07527 33.7066 3.93312ZM34.3589 7.88339C33.9804 6.49189 31.9238 6.20002 30.7895 7.09048C29.6552 7.98095 29.2876 9.53207 29.1891 10.9708C29.1523 11.5073 28.2698 11.5609 27.9676 11.1161C27.6653 10.6712 27.7878 10.0717 27.9556 9.56075C28.3986 8.21212 29.0807 6.94239 29.9606 5.82846C30.3963 5.27688 29.7577 4.53106 29.1827 4.1268C27.1537 2.70036 24.2807 1.2929 22.4195 2.93219C17.3196 7.42411 9.18483 8.02256 3.48245 4.32534C3.55043 8.92776 3.88953 13.5262 4.49743 18.0888C4.55867 18.5484 4.63725 19.0395 4.9548 19.3774C5.37505 19.8246 6.06293 19.8558 6.67662 19.8566C16.5828 19.8692 26.4889 19.8818 36.3951 19.8944C37.359 19.8956 38.6696 19.5514 38.5944 18.5904C38.4194 16.3539 39.4096 14.058 41.1563 12.6504C39.7824 11.6523 38.4085 10.6543 37.0347 9.65625C36.6157 9.35186 36.1768 9.03885 35.6663 8.95136C34.1249 8.68718 33.0951 10.4542 32.55 11.92C31.7145 10.4265 32.6881 8.25385 34.3589 7.88339ZM8.46853 23.1549C18.7843 23.2357 29.1008 23.2184 39.4162 23.103C42.3447 23.0702 45.764 22.7729 47.352 20.3121C33.1075 20.938 18.8423 21.0928 4.58756 20.7765C4.41019 22.4875 6.74835 23.1414 8.46853 23.1549ZM43.7722 13.9596C43.4653 13.7651 43.1478 13.5664 42.7896 13.5049C41.7095 13.3196 40.8575 14.3984 40.3883 15.3888C40.1169 15.9615 39.8811 16.5511 39.6826 17.1529C39.5314 17.6115 39.4007 18.0991 39.4958 18.5724C39.5908 19.0458 39.9789 19.4937 40.4617 19.4992C42.2158 19.5191 43.9703 19.5005 45.7236 19.4432C46.1372 19.4297 46.587 19.4002 46.8967 19.1258C47.2611 18.8029 47.3056 18.2455 47.2143 17.7673C46.8839 16.0358 45.2611 14.9033 43.7722 13.9596ZM37.5756 2.76119C37.5564 2.22703 36.8431 1.95558 36.35 2.16175C35.8568 2.36793 35.5535 2.85812 35.2828 3.31899C34.9555 3.87608 34.6283 4.43318 34.301 4.99028C34.1294 5.28236 34.0361 5.77939 34.3669 5.85263C35.2378 5.12865 36.1087 4.40468 36.9796 3.6807C37.2711 3.43834 37.5892 3.14007 37.5756 2.76119ZM31.9316 3.63185C31.7837 4.35215 32.1532 5.14819 32.7989 5.50012C33.0227 4.75819 32.8915 3.91753 32.4523 3.27905C32.4252 3.09847 32.1801 2.99408 32.0311 3.0996C31.9162 3.24498 31.8752 3.44585 31.9239 3.62463L31.9316 3.63185Z" fill="#00160A"/>
</svg>
