<svg width="51" height="9" viewBox="0 0 51 9" fill="none" xmlns="http://www.w3.org/2000/svg">
<path fill-rule="evenodd" clip-rule="evenodd" d="M50.3119 0.192505C50.4033 1.43075 50.4905 2.70631 50.1047 3.88645C49.7188 5.06658 48.7384 6.14172 47.5014 6.24807C41.1243 6.79635 34.7463 7.34469 28.3569 7.72279C19.6446 8.23835 10.917 8.43705 2.19171 8.63566C1.88042 8.64275 1.54725 8.64387 1.28744 8.47227C0.897631 8.21481 0.824612 7.68297 0.788587 7.2172C0.694251 5.9975 0.599914 4.77779 0.505577 3.55809C0.476883 3.18711 0.455146 2.78636 0.655028 2.47252C0.947792 2.01284 1.57468 1.93389 2.11871 1.90165C18.1666 0.950397 34.237 0.380469 50.3119 0.192505ZM47.627 4.47095C48.6523 4.40263 48.8598 2.78902 48.1081 2.08851C47.3563 1.388 46.2147 1.37252 45.1875 1.39805C31.9803 1.72624 18.7682 2.05465 5.58741 2.95112C4.63818 3.01568 3.65069 3.09464 2.83011 3.57617C2.00953 4.05771 1.41712 5.07029 1.73061 5.96859C2.17594 7.2447 3.89766 7.38509 5.24625 7.29522C19.3732 6.3538 33.5001 5.41237 47.627 4.47095Z" fill="#00160A"/>
</svg>
