<svg width="330" height="356" viewBox="0 0 330 356" fill="none" xmlns="http://www.w3.org/2000/svg">
<path fill-rule="evenodd" clip-rule="evenodd" d="M291.136 208.533C277.816 213.741 264.496 218.95 251.176 224.159C245.446 226.399 238.817 229.762 238.203 235.884C245.986 229.896 255.601 226.322 265.406 225.773C258.632 234.307 250.079 241.423 240.454 246.53C231.811 251.117 220.867 256.009 220.126 265.766C229.409 254.712 243.681 248.02 258.116 247.953C248.881 261.479 234.073 271.073 217.954 273.973C218.507 278.129 219.06 282.286 219.614 286.442C225.09 286.248 230.601 287.032 235.806 288.745C239.513 304.671 243.221 320.598 246.928 336.524C247.84 340.443 248.643 344.947 246.243 348.177C243.862 351.381 239.366 351.932 235.384 352.215C219.691 353.331 203.997 354.447 188.303 355.562C186.424 347.05 184.545 338.537 182.666 330.024C156.195 332.482 129.723 334.94 103.251 337.398C97.6765 337.916 91.7807 338.38 86.7362 335.951C68.4393 327.143 46.2536 344.193 26.9284 337.955C43.9076 337.635 60.8345 334.673 76.9138 329.209C82.7451 327.228 89.7272 321.8 86.6803 316.447C71.7689 326.852 52.6362 331.005 34.7529 327.72C35.8029 310.353 35.1276 292.882 32.7402 275.648C45.4649 273.828 58.0051 270.721 70.1078 266.39C73.4743 265.186 76.9377 263.799 79.335 261.147C81.7324 258.494 82.7016 254.208 80.5952 251.319C62.1872 261.128 40.9331 265.518 20.1453 263.805C21.23 287.326 22.3147 310.848 23.3994 334.369C20.3268 310.865 18.6972 287.171 18.5231 263.467C29.2238 262.519 39.9245 261.57 50.6252 260.621C48.9046 252.983 47.1732 245.17 48.057 237.391C48.9409 229.611 52.9448 221.733 59.9826 218.302C54.6582 206.946 46.6114 196.877 36.7084 189.18C25.0992 180.157 10.1734 173.355 4.87198 159.64C1.3667 150.572 3.08608 140.025 7.93971 131.602C12.7933 123.178 20.4843 116.689 28.8435 111.726C17.3349 108.768 8.61769 97.2957 8.85092 85.4153C9.08414 73.5349 18.2449 62.4138 29.8607 59.9095C24.3841 53.3832 15.7605 50.3919 9.4615 44.6553C2.12362 37.9725 -1.56372 27.1926 1.10918 17.6344C3.78207 8.07619 13.193 0.555965 23.1089 0.979713C31.2539 1.32778 38.4216 6.47931 44.1071 12.3221C52.9245 21.3835 59.4822 32.6275 63.0276 44.7637C65.3907 52.8529 74.0513 56.9681 81.3654 61.1544C88.6794 65.3406 96.2748 72.6326 94.2142 80.8041C91.4898 69.6223 82.3415 60.2495 71.229 57.2549C65.4387 55.6945 63.3284 48.804 61.4659 43.1037C57.8414 32.0111 51.6541 21.7646 43.5249 13.3922C37.4156 7.10018 29.4281 1.60968 20.6709 2.08238C11.6559 2.569 3.70889 9.90225 1.64783 18.692C-0.413232 27.4818 3.04241 37.113 9.62037 43.2967C16.3205 49.5952 25.9056 52.6805 31.3073 60.1226C19.5918 62.5034 10.3297 73.7779 10.2681 85.7327C10.2066 97.6874 19.3522 109.057 31.0425 111.558C22.8041 116.38 15.0953 122.506 10.0125 130.587C4.9297 138.667 2.75084 148.923 5.79211 157.971C12.8265 178.9 42.146 183.896 52.4928 203.401C55.2951 194.197 51.1874 184.519 49.0761 175.132C46.9649 165.745 48.1582 153.691 56.91 149.694C54.3522 137.366 51.7945 125.038 49.2367 112.711C47.3308 103.524 46.3745 91.886 54.277 86.8294C48.709 85.1025 43.7673 81.4243 40.5151 76.5863C44.0272 81.9621 50.7916 85.0123 57.1457 84.0855C49.116 66.679 40.2126 49.6755 30.4804 33.1604C40.967 48.9724 50.2479 65.5838 58.2161 82.8029C95.07 81.8058 131.981 82.9412 168.704 86.2016C173.58 86.6344 178.828 87.2646 182.432 90.5767C187.611 95.3364 195.388 97.0723 202.1 94.9673C204.235 100.261 205.806 106.207 203.991 111.619C202.176 117.031 195.746 121.162 190.606 118.679C191.947 125.582 193.289 132.485 194.631 139.387C207.773 139.545 220.913 139.813 234.05 140.192C241.013 140.393 248.291 140.71 254.342 144.159C260.394 147.609 264.664 155.25 261.969 161.673C263.688 156.365 265.407 151.057 267.126 145.749C273.186 155.368 276.163 166.897 275.515 178.247C277.615 175.053 279.714 171.859 281.813 168.665C274.355 156.927 273.406 141.326 279.385 128.77C285.25 138.482 288.553 149.725 288.874 161.066C291.061 140.627 305.542 121.993 324.808 114.828C321.466 122.53 318.123 130.232 314.781 137.934C311.919 144.528 308.283 151.842 301.407 153.937C296.871 155.319 290.303 155.236 289.48 159.906C302.509 156.489 316.376 156.32 329.485 159.418C319.384 171.562 299.919 174.552 286.638 166C280.373 172.987 274.945 180.725 270.506 188.994C278.046 179.623 289.779 173.764 301.8 173.365C295.342 180.998 288.057 187.931 280.115 194.004C284.331 194.409 288.888 194.964 291.946 197.894C295.003 200.824 295.08 206.991 291.136 208.533ZM115.311 131.614C118.805 131.574 122.718 131.698 125.156 134.2C127.017 136.108 127.515 138.923 127.921 141.558C129.776 153.604 131.512 165.669 133.13 177.75C133.536 180.78 130.996 183.576 128.093 184.537C125.191 185.498 122.035 185.076 119.009 184.645C121.532 182.466 125.793 184.028 128.509 182.095C130.945 180.362 130.931 176.803 130.639 173.827C129.545 162.672 128.056 151.555 126.175 140.505C125.843 138.552 125.436 136.474 124.052 135.055C122.209 133.167 119.265 133.041 116.627 133.038C105.796 133.024 94.9652 133.011 84.1345 132.997C82.2678 132.995 80.3037 133.017 78.6831 133.943C74.0196 136.609 75.7388 143.649 78.057 148.495C84.6244 147.163 91.3349 146.539 98.0351 146.636C103.971 146.723 111.373 148.65 112.374 154.502C114.573 167.357 116.772 180.212 118.971 193.067C120.124 199.807 120.759 207.996 115.373 212.209C112.681 214.314 109.109 214.815 105.719 215.244C97.3841 216.298 89.0489 217.352 80.7137 218.405C84.1853 248.802 87.6569 279.198 91.1284 309.595C91.5156 312.985 92.2246 316.883 95.2058 318.543C96.9694 319.526 99.1087 319.445 101.124 319.335C127.683 317.887 154.215 315.969 180.705 313.583C179.646 311.168 179.625 308.319 180.649 305.889C183.332 321.597 186.015 337.305 188.698 353.013C193.396 349.774 192.674 342.746 191.426 337.178C188.269 323.082 185.111 308.985 181.954 294.889C180.675 297.234 179.397 299.58 178.118 301.925C177.491 298.997 179.248 295.967 181.684 294.227C184.121 292.486 187.124 291.772 190.053 291.144C199.055 289.214 208.154 287.74 217.305 286.729C214.646 267.97 211.987 249.21 209.327 230.451C192.978 234.942 175.664 233.528 158.771 232.08C153.767 231.651 147.409 229.967 146.931 224.968C145.732 212.401 144.532 199.834 143.333 187.267C143.177 185.629 142.227 183.422 140.665 183.938C136.824 185.206 134.54 179.734 134.226 175.702C133.24 163.056 132.254 150.409 131.268 137.762C131.138 136.103 131.105 134.189 132.342 133.077C133.208 132.298 134.455 132.155 135.615 132.049C143.89 131.292 152.165 130.536 160.44 129.779C165.166 129.347 170.534 129.124 173.972 132.394C176.399 134.702 177.213 138.201 177.726 141.511C178.67 147.611 178.982 153.808 178.657 159.972C178.001 153.947 177.345 147.922 176.69 141.897C176.395 139.186 176.034 136.311 174.322 134.189C171.399 130.567 165.96 130.628 161.321 131.01C153.035 131.692 144.749 132.373 136.463 133.055C135.347 133.147 134.137 133.279 133.326 134.051C132.271 135.055 132.3 136.717 132.406 138.17C133.294 150.392 134.182 162.614 135.069 174.836C135.237 177.143 135.465 179.609 136.924 181.404C138.382 183.2 141.546 183.763 142.909 181.894C141.042 177.79 143.624 172.765 147.446 170.373C151.269 167.982 155.96 167.561 160.454 167.202C168.206 166.583 175.957 165.965 183.709 165.347C183.177 149.303 181.447 133.299 178.537 117.512C175.856 116.762 173.415 115.178 171.638 113.034C170.309 116.458 166.35 118.635 162.746 117.921C159.143 117.208 156.311 113.687 156.387 110.015C155.96 114.241 152.278 117.907 148.05 118.316C143.822 118.724 139.506 115.832 138.277 111.766C136.252 114.024 133.624 115.97 130.604 116.245C127.583 116.52 124.242 114.612 123.751 111.619C119.784 116.765 110.565 116.243 107.205 110.682C103.749 116.386 93.9089 116.246 90.6165 110.446C89.1381 115.808 80.8854 116.237 76.9241 112.332C72.9627 108.428 72.1915 102.412 71.6403 96.8773C65.1015 103.178 63.9218 113.299 65.1629 122.294C66.4039 131.289 69.638 139.954 70.4225 149C72.2139 149.45 74.1788 149.166 75.769 148.226C74.0514 143.035 72.9218 136.062 77.5846 133.207C79.4549 132.061 81.7694 132.003 83.9623 131.977C94.412 131.856 104.862 131.735 115.311 131.614ZM218.829 218.97C232.537 218.289 246.677 220.076 259.704 215.755C261.72 215.087 263.785 214.206 265.083 212.526C261.756 210.996 258.222 208.359 258.304 204.698C258.357 202.294 260.023 200.215 261.9 198.712C263.871 197.133 266.165 195.961 268.599 195.289C268.796 194.687 267.737 194.556 267.212 194.912C266.688 195.268 265.891 195.709 265.542 195.179C265.448 195.037 265.429 194.86 265.413 194.691C264.105 181.385 262.168 168.142 259.609 155.02C258.84 151.074 257.696 146.679 254.219 144.663C252.341 143.574 250.091 143.391 247.926 143.241C231.625 142.114 215.295 141.423 198.958 141.17C195.097 141.11 190.777 141.254 188.071 144.008C186.017 146.097 185.429 149.2 185.212 152.121C184.538 161.166 186.476 170.17 187.736 179.153C189.245 189.913 189.789 200.782 190.784 211.601C190.917 213.041 191.077 214.541 191.856 215.76C193.191 217.848 195.902 218.503 198.357 218.847C201.983 219.356 205.651 219.571 209.312 219.49C212.489 219.42 215.656 219.127 218.829 218.97ZM106.333 149.174C101.693 147.134 96.3778 147.68 91.3427 148.265C83.7264 149.149 76.1101 150.033 68.4938 150.918C64.8332 151.343 61.1689 151.768 57.5475 152.451C56.6744 152.616 55.7984 152.797 54.9746 153.13C51.7467 154.434 49.8223 157.915 49.3745 161.368C48.9268 164.82 49.6942 168.301 50.4299 171.704C52.7163 182.28 54.744 192.955 55.2941 203.762C55.403 205.901 55.4577 208.069 56.0457 210.128C56.6336 212.188 57.8343 214.17 59.7115 215.201C61.1555 215.995 62.8519 216.16 64.4962 216.268C79.5672 217.258 94.6301 214.828 109.538 212.406C111.659 212.061 113.891 211.668 115.544 210.295C118.098 208.175 118.48 204.446 118.461 201.127C118.427 194.998 117.685 188.873 116.254 182.913C114.581 175.942 111.954 169.085 111.884 161.917C111.853 158.755 112.268 155.348 110.619 152.651C109.644 151.057 108.044 149.926 106.333 149.174ZM34.6175 281.912C36.6434 296.469 37.3241 311.213 36.6479 325.894C36.6123 326.668 37.5527 327.062 38.3136 327.208C48.0595 329.07 58.0962 326.684 67.5532 323.681C72.929 321.974 78.3091 320.028 82.9585 316.835C85.0854 315.374 87.2376 313.173 86.8399 310.624C84.2849 294.245 82.8795 277.687 82.6377 261.112C74.0328 267.836 63.1133 270.689 52.5301 273.381C47.5142 274.657 42.4303 275.942 37.2547 275.898C36.0036 275.888 34.9648 276.987 34.6151 278.188C34.2655 279.39 34.445 280.673 34.6174 281.912M232.408 289.27C216.29 287.701 199.847 289.544 184.477 294.644C185.399 301.664 186.661 308.641 188.254 315.54C188.892 318.303 189.583 321.053 190.274 323.803C191.62 329.159 192.966 334.514 194.312 339.87C194.5 340.615 194.734 341.43 195.377 341.852C195.95 342.228 196.692 342.185 197.376 342.128C213.292 340.801 229.199 339.363 245.095 337.814C241.62 322.324 238.145 306.833 234.67 291.343C234.536 290.748 234.375 290.107 233.902 289.722C233.492 289.389 232.934 289.322 232.408 289.27ZM208.648 221.271C205.141 221.45 201.581 221.624 198.156 220.846C194.732 220.068 191.399 218.202 189.641 215.162C188.631 216.324 186.624 216.411 185.518 215.341C184.411 214.271 184.431 212.262 185.559 211.214C181.104 211.255 176.648 211.295 172.193 211.335C174.229 212.534 174.061 216.071 171.957 217.145C169.852 218.219 166.938 216.405 166.889 214.042C166.867 212.982 167.518 211.791 168.574 211.696C168.136 210.945 166.999 211.389 166.134 211.308C164.83 211.184 164.117 209.764 163.66 208.536C161.805 203.56 160.117 198.522 158.43 193.486C159.611 195.42 162.272 196.29 164.368 195.428C165.109 195.123 165.131 194.058 164.816 193.322C164.266 192.037 163.011 191.047 161.617 190.937C160.224 190.828 158.773 191.68 158.302 192.996C157.604 192.473 157.901 191.266 158.634 190.793C159.367 190.32 160.305 190.361 161.176 190.414C169.394 190.91 177.642 190.902 185.859 190.39C186.233 190.367 186.645 190.325 186.9 190.051C187.189 189.74 187.161 189.261 187.115 188.84C186.801 185.949 186.487 183.059 186.173 180.169C186.138 179.848 186.088 179.498 185.849 179.282C185.585 179.044 185.188 179.055 184.833 179.08C174.533 179.814 164.26 180.923 154.04 182.403C152.953 182.561 151.941 181.648 151.597 180.604C151.254 179.559 151.413 178.425 151.575 177.338C151.632 176.956 151.704 176.543 151.987 176.281C152.247 176.039 152.624 175.982 152.977 175.937C163.609 174.58 174.31 173.766 185.026 173.498C184.766 174.557 183.385 174.785 182.295 174.804C172.351 174.981 162.417 175.778 152.571 177.19C151.785 178.534 152.863 180.345 154.314 180.91C155.765 181.476 157.391 181.174 158.921 180.886C167.357 179.298 175.915 178.362 184.495 178.09C185.719 178.051 185.866 176.288 185.608 175.09C185.011 172.307 184.413 169.525 183.815 166.742C177.874 167.868 171.804 168.317 165.762 168.078C162.187 167.936 158.631 168.561 155.107 169.184C152.113 169.713 148.921 170.34 146.757 172.476C144.228 174.973 143.774 178.878 143.928 182.429C144.18 188.255 145.658 193.954 146.388 199.74C147.28 206.809 147.05 213.974 147.735 221.066C147.919 222.977 148.183 224.923 149.039 226.641C149.896 228.359 151.453 229.834 153.352 230.117C168.953 232.443 184.86 232.707 200.53 230.9C201.977 230.733 203.437 230.545 204.804 230.04C206.961 229.242 208.81 227.643 209.91 225.623C210.352 224.813 210.681 223.886 210.52 222.977C210.359 222.068 209.57 221.224 208.648 221.271ZM83.9235 261.126C85.5562 279.089 87.1889 297.052 88.8216 315.015C89.1151 318.243 89.3975 321.578 88.3884 324.659C87.3793 327.74 84.7246 330.525 81.4845 330.631C83.3867 333.413 86.6699 335.005 89.9897 335.587C93.3095 336.169 96.7133 335.861 100.07 335.551C127.724 332.996 155.378 330.441 183.032 327.886C182.439 324.43 181.845 320.974 181.251 317.518C181.118 316.743 180.737 315.759 179.953 315.818C160.939 317.235 141.925 318.652 122.911 320.069C115.103 320.651 107.257 321.232 99.4536 320.594C95.505 320.271 90.6283 318.702 90.2386 314.759C87.1215 283.215 83.5127 251.719 79.4141 220.286C79.351 219.803 79.2728 219.286 78.9422 218.927C78.501 218.449 77.7706 218.412 77.1197 218.409C73.2316 218.389 69.3436 218.369 65.4555 218.35C66.5911 224.791 68.0651 231.173 69.8694 237.46C70.2029 238.622 70.7576 239.978 71.9481 240.187C76.2232 240.938 79.5974 244.455 81.3563 248.423C83.1152 252.391 83.5306 256.803 83.9235 261.126ZM68.9854 149.316C65.6482 132.39 62.8246 115.362 60.5198 98.2648C60.3895 97.2979 60.2633 96.2952 60.5479 95.362C61.1344 93.4383 63.2385 92.4303 65.1952 91.9661C69.0208 91.0587 73.0156 91.3614 76.9366 91.6505C112.786 94.2939 148.751 95.3516 184.694 94.8196C183.264 91.9201 180.389 89.9426 177.332 88.8939C174.274 87.8452 171.006 87.6124 167.781 87.3895C136.142 85.203 104.456 83.154 72.7438 83.5359C68.864 83.5826 64.9388 83.6719 61.1925 84.6822C57.4462 85.6925 53.8418 87.7273 51.6805 90.9497C48.2747 96.0276 49.0985 102.735 50.1526 108.758C52.6212 122.862 55.6245 136.872 59.1539 150.749C62.4311 150.271 65.7082 149.794 68.9854 149.316ZM146.175 116.234C147.888 116.252 149.668 116.156 151.184 115.358C153.854 113.952 155.039 110.714 155.216 107.702C155.392 104.69 154.797 101.672 154.989 98.6605C155.033 97.9742 155.416 97.0647 156.082 97.2369C156.564 100.703 157.046 104.17 157.528 107.636C157.795 109.55 158.071 111.499 158.91 113.24C159.748 114.981 161.256 116.511 163.153 116.875C164.243 117.085 165.381 116.897 166.419 116.506C168.906 115.572 170.991 113.192 170.896 110.537C170.765 106.871 170.635 103.205 170.504 99.539C170.453 98.0887 169.914 96.1562 168.464 96.2322C158.802 96.7385 149.111 96.6938 139.455 96.0983C138.75 96.0549 138.565 97.0526 138.639 97.7542C139.026 101.39 139.412 105.026 139.799 108.662C140.091 111.408 140.714 114.634 143.233 115.764C144.145 116.174 145.174 116.223 146.175 116.234ZM195.73 344.396C195.267 344.721 194.961 345.22 194.68 345.71C193.214 348.261 192.037 350.977 191.176 353.79C208.089 352.609 224.989 351.235 241.871 349.671C242.506 349.613 243.194 349.53 243.649 349.084C243.945 348.794 244.096 348.392 244.239 348.004C244.871 346.288 245.503 344.571 246.135 342.854C246.442 342.019 246.715 340.98 246.114 340.323C245.615 339.778 244.765 339.795 244.028 339.854C228.593 341.091 213.165 342.422 197.747 343.849C197.045 343.914 196.307 343.992 195.73 344.396ZM225.544 240.194C225.087 234.858 224.155 228.869 219.801 225.752C218.101 230.431 216.386 235.181 215.997 240.144C215.609 245.108 216.705 250.397 220.035 254.099C220.502 254.619 221.023 255.124 221.271 255.778C221.519 256.432 221.393 257.295 220.785 257.642C216.26 253.705 214.387 247.39 214.493 241.392C214.599 235.395 216.437 229.579 218.258 223.864C218.659 222.609 217.514 221.288 216.229 220.995C214.944 220.702 213.617 221.132 212.369 221.556C212.126 221.638 212.019 221.916 211.943 222.16C211.08 224.91 210.209 227.825 210.877 230.627C213.757 242.704 213.385 255.379 216.316 267.443C216.424 267.888 216.541 268.343 216.801 268.721C218.744 264.921 220.688 261.12 222.632 257.32C223.545 255.534 224.464 253.735 225.034 251.812C226.142 248.073 225.877 244.08 225.544 240.194ZM294.305 152.534C294.68 152.844 295.184 152.941 295.668 152.996C301.164 153.61 306.351 149.869 309.395 145.251C312.439 140.633 313.877 135.177 315.872 130.019C317.745 125.177 320.14 120.538 323.003 116.208C317.272 121.587 310.215 125.353 304.232 130.451C298.249 135.548 293.158 142.698 293.58 150.547C293.619 151.272 293.744 152.072 294.305 152.534ZM74.1624 100.522C74.9437 103.947 74.6207 107.753 76.5183 110.71C78.358 113.576 82.2385 114.942 85.4678 113.86C88.6971 112.778 90.9715 109.35 90.7132 105.954C90.6545 105.182 90.4803 104.425 90.3066 103.67C89.6263 100.715 88.9459 97.7604 88.2655 94.8054C88.1978 94.5114 88.1221 94.2021 87.9137 93.9841C87.6147 93.6715 87.1362 93.6351 86.704 93.6185C82.5473 93.4594 78.3907 93.3003 74.2341 93.1411C73.8342 93.1258 73.3953 93.1228 73.0845 93.3748C72.6911 93.6937 72.6686 94.2797 72.7197 94.7835C72.9192 96.7484 73.7231 98.5965 74.1624 100.522ZM186.679 103.717C186.778 108.448 189.86 112.562 193.111 116.001C193.428 116.337 193.754 116.674 194.151 116.911C194.792 117.294 195.573 117.385 196.317 117.321C198.828 117.105 200.976 115.206 202.036 112.92C203.096 110.633 203.216 108.017 202.988 105.507C202.759 102.997 202.204 100.525 201.98 98.0146C201.935 97.5111 201.75 96.8538 201.244 96.8558C196.801 96.8728 192.357 96.8898 187.913 96.9068C187.345 96.909 186.742 96.9207 186.262 97.2249C185.782 97.5291 185.514 98.2398 185.87 98.6828C186.958 100.036 186.642 101.981 186.679 103.717ZM254.256 250.061C242.081 249.847 230.92 257.065 222.404 265.768C220.968 267.236 219.567 268.775 218.611 270.591C218.442 270.913 218.309 271.36 218.586 271.595C218.733 271.72 218.944 271.728 219.137 271.727C226.221 271.702 233.033 268.71 238.788 264.581C244.543 260.451 249.392 255.21 254.256 250.061ZM103.605 113.001C105.344 112 106.463 110.006 106.413 108C106.387 106.982 106.086 105.995 105.845 105.006C105.222 102.462 104.981 99.8257 105.13 97.211C105.161 96.6541 105.209 96.082 105.041 95.5499C104.874 95.0178 104.43 94.5285 103.873 94.4981C99.2722 94.2469 94.6713 93.9956 90.0705 93.7444C89.905 93.7354 89.7245 93.7305 89.5909 93.8286C89.3838 93.9805 89.3954 94.2886 89.4338 94.5425C90 98.2864 91.8117 101.813 91.9279 105.598C91.9707 106.99 91.7845 108.418 92.1745 109.755C92.6739 111.468 94.1004 112.82 95.7556 113.487C97.4107 114.153 99.2679 114.191 101.024 113.874C101.922 113.712 102.814 113.456 103.605 113.001ZM287.7 164.257C291.032 165.197 293.978 167.162 297.211 168.402C304.377 171.151 312.907 170.003 319.091 165.458C321.747 163.507 324.403 161.556 327.059 159.604C323.821 160.37 320.473 160.664 317.152 160.472C311.602 160.152 306.122 158.49 300.579 158.907C295.864 159.261 291.278 161.166 287.7 164.257ZM192.55 138.616C191.895 134.988 191.24 131.36 190.585 127.732C189.708 122.87 188.83 118.007 187.952 113.145C187.89 112.8 187.814 112.43 187.559 112.19C187.303 111.95 186.804 111.949 186.665 112.271C185.789 114.294 183.994 115.898 181.885 116.543C180.605 116.933 180.496 118.679 180.644 120.009C181.694 129.39 182.936 138.75 184.37 148.08C184.787 144.264 188.057 140.95 191.867 140.482C192.608 140.391 192.683 139.351 192.55 138.616ZM122.547 109.107C122.14 105.196 121.626 101.296 121.007 97.413C120.879 96.6122 120.538 95.6139 119.728 95.5784C115.541 95.3947 111.353 95.211 107.166 95.0273C107.016 95.0207 106.859 95.0159 106.727 95.0859C106.389 95.2651 106.444 95.7581 106.543 96.1275C107.509 99.7131 108.022 103.42 108.065 107.134C108.076 108.047 108.065 108.996 108.448 109.826C109.01 111.047 110.292 111.748 111.509 112.318C113.632 113.313 115.952 114.187 118.268 113.826C120.583 113.465 122.789 111.438 122.547 109.107ZM124.358 109.129C124.78 111.175 125.554 113.556 127.559 114.144C129.251 114.641 131.08 114.777 132.778 114.299C134.475 113.821 136.022 112.681 136.782 111.09C137.322 109.957 137.444 108.675 137.514 107.422C137.707 103.989 137.575 100.538 137.119 97.1301C137.094 96.9477 137.067 96.7601 136.975 96.6008C136.731 96.1777 136.155 96.1183 135.666 96.1077C131.402 96.0148 127.138 95.9219 122.874 95.829C122.526 95.8214 122.039 96.1835 122.334 96.3695C122.811 100.651 123.487 104.91 124.358 109.129ZM267.639 151.478C264.309 159.009 263.328 167.56 264.866 175.65C265.481 178.882 266.69 182.311 269.487 184.042C270.31 184.551 271.683 184.702 271.987 183.783C275.526 173.107 273.875 160.839 267.639 151.478ZM51.7312 246.033C53.1443 247.002 54.7372 247.709 56.4044 248.106C58.511 248.608 60.6989 248.614 62.8639 248.666C67.923 248.788 72.9756 249.176 77.9941 249.827C78.6943 249.918 79.273 249.16 79.2545 248.454C79.236 247.749 78.8067 247.125 78.3617 246.577C75.6851 243.28 71.7764 241.007 67.5868 240.313C64.6189 239.82 61.5842 240.096 58.577 240.01C55.5698 239.923 52.4308 239.414 50.0327 237.597C49.9058 239.325 49.8956 241.061 50.0025 242.79C50.0457 243.489 50.1164 244.215 50.473 244.819C50.7719 245.324 51.2467 245.7 51.7312 246.033ZM173.447 111.852C173.919 112.709 174.677 113.368 175.453 113.963C176.294 114.608 177.203 115.211 178.236 115.448C180.78 116.031 183.381 114.146 184.454 111.766C185.526 109.387 185.417 106.659 185.169 104.061C184.981 102.097 184.726 100.139 184.403 98.1926C184.349 97.868 184.287 97.5286 184.083 97.2705C183.724 96.8177 183.069 96.7652 182.492 96.7499C179.391 96.6674 176.289 96.585 173.188 96.5026C172.501 96.4843 171.526 96.8128 171.73 97.4687C172.643 100.405 173.041 103.501 172.9 106.573C172.818 108.365 172.58 110.281 173.447 111.852ZM283.204 166.374C286.497 161.06 287.482 154.37 285.862 148.332C284.429 142.994 281.099 138.266 280.043 132.84C277.582 140.307 275.104 148.345 277.331 155.886C278.472 159.75 280.776 163.158 283.204 166.374ZM228.654 249.973C238.448 247.451 247.487 242.073 254.378 234.671C256.439 232.456 258.549 230.287 260.707 228.165C255.422 228.89 250.263 230.524 245.525 232.975C238.297 236.713 231.955 242.535 228.654 249.973ZM288.32 184.97C291.922 181.585 295.524 178.2 299.125 174.815C286.944 176.368 275.569 183.406 268.743 193.614C270.503 194.969 273.027 194.171 275.079 193.322C277.933 192.142 280.812 190.948 283.353 189.192C285.143 187.956 286.735 186.46 288.32 184.97ZM51.4201 258.952C51.4504 259.264 51.4874 259.595 51.6769 259.846C52.0915 260.395 52.9368 260.26 53.597 260.067C61.1555 257.858 68.6079 255.287 75.92 252.364C76.4471 252.153 77.0621 251.819 77.0726 251.252C71.4631 250.863 65.8537 250.474 60.2442 250.085C58.8722 249.989 57.4948 249.894 56.1498 249.606C54.1265 249.175 52.1973 248.307 50.5312 247.081C50.6533 251.048 51.0368 255.001 51.4201 258.952ZM228.619 220.998C228.167 221.325 227.984 221.901 227.828 222.438C227.294 224.278 226.758 226.23 227.253 228.081C227.506 229.024 228.013 229.875 228.514 230.713C229.901 233.031 231.287 235.348 232.674 237.666C232.803 237.881 232.943 238.108 233.165 238.225C233.828 238.572 234.481 237.756 234.789 237.074C236.784 232.648 238.825 227.968 238.372 223.134C238.302 222.391 238.101 221.547 237.436 221.206C237.131 221.05 236.777 221.03 236.435 221.013C234.379 220.911 232.324 220.809 230.268 220.707C229.699 220.678 229.081 220.664 228.619 220.998ZM260.037 204.612C259.984 207.728 262.702 210.332 265.682 211.239C268.663 212.146 271.862 211.755 274.96 211.423C280.406 210.838 286.167 210.356 290.645 207.2C291.638 206.499 292.578 205.635 293.021 204.504C293.714 202.738 293.018 200.653 291.716 199.274C290.415 197.895 288.61 197.106 286.804 196.528C280.35 194.462 273.185 194.7 266.882 197.189C263.557 198.503 260.097 201.038 260.037 204.612ZM50.9072 236.433C51.4939 236.981 52.6831 237.121 52.9119 236.351C53.6957 233.716 55.4579 231.457 57.5337 229.654C59.6095 227.851 62.0029 226.459 64.3802 225.078C65.0215 224.705 64.9811 223.781 64.8572 223.05C64.6171 221.634 64.3771 220.218 64.137 218.801C64.0762 218.442 63.9562 218.014 63.605 217.918C63.3177 217.84 63.0337 218.034 62.7989 218.218C61.0934 219.549 59.3879 220.881 57.6824 222.213C54.2651 224.882 50.6028 227.943 49.8617 232.215C49.6035 233.704 49.8027 235.403 50.9072 236.433M64.2113 226.899C60.381 229.292 56.3265 231.94 54.5859 236.107C54.4775 236.366 54.3775 236.639 54.386 236.92C54.4028 237.474 54.8495 237.942 55.3617 238.154C55.8738 238.367 56.4443 238.377 56.9989 238.384C60.2779 238.422 63.5568 238.461 66.8358 238.499C66.9953 238.501 67.1684 238.499 67.2942 238.401C67.4931 238.246 67.4728 237.944 67.4334 237.695C66.9103 234.39 66.3873 231.084 65.8642 227.779C65.7898 227.308 65.638 226.746 65.1792 226.618C64.8455 226.525 64.5052 226.716 64.2113 226.899ZM227.12 221.201C224.706 220.578 222.102 220.714 219.765 221.584C220.218 223.069 221.02 224.446 222.088 225.572C225.687 229.367 226.751 234.877 227.16 240.091C227.378 242.876 227.455 245.672 227.39 248.465C228.971 246.026 230.552 243.587 232.133 241.148C232.291 240.906 232.453 240.649 232.47 240.361C232.487 240.072 232.356 239.797 232.223 239.54C230.663 236.528 228.37 233.93 226.923 230.861C225.475 227.792 225.031 223.875 227.12 221.201ZM65.3713 93.5282C64.0397 93.7394 62.5214 94.0778 61.8889 95.2685C61.4516 96.0917 61.5806 97.0878 61.7211 98.0092C62.2999 101.804 62.8786 105.599 63.4573 109.394C66.419 104.069 69.1921 98.6411 71.9645 93.2147C71.4514 92.6345 70.5421 92.7079 69.7771 92.8293C68.3085 93.0623 66.8399 93.2952 65.3713 93.5282ZM247.662 222.389C248.072 222.933 249.142 222.33 248.89 221.697C252.846 222.833 257.158 222.025 260.894 220.299C264.63 218.574 267.892 215.988 271.102 213.414C269.754 213.225 268.406 213.037 267.057 212.848C266.782 212.81 266.426 212.815 266.321 213.072C265.595 214.85 264.032 216.181 262.306 217.021C260.58 217.862 258.681 218.269 256.803 218.669C255.5 218.947 254.197 219.224 252.894 219.502C250.876 219.932 248.6 220.551 247.662 222.389ZM176.103 194.868C176.357 194.804 176.629 194.728 176.791 194.523C177.042 194.205 176.916 193.747 176.85 193.347C176.785 192.947 176.886 192.414 177.285 192.345C177.65 192.417 177.818 192.849 177.827 193.221C177.836 193.592 177.754 193.979 177.888 194.325C178.187 195.097 179.251 195.127 180.071 195.022C180.557 194.96 181.042 194.899 181.527 194.837C181.679 194.817 181.842 194.793 181.955 194.69C182.314 194.361 181.814 193.824 181.703 193.35C181.617 192.984 181.789 192.588 181.676 192.229C181.485 191.617 180.672 191.523 180.031 191.545C175.132 191.707 170.233 191.87 165.334 192.032C165.418 192.959 165.672 193.871 166.079 194.708C166.166 194.888 166.27 195.074 166.444 195.174C166.62 195.276 166.837 195.269 167.04 195.26C168.258 195.203 169.475 195.146 170.693 195.09C170.797 195.085 170.906 195.078 170.993 195.021C171.215 194.874 171.138 194.535 171.036 194.289C170.86 193.866 170.684 193.442 170.508 193.019C170.355 192.65 171.022 192.432 171.303 192.715C171.584 192.999 171.594 193.443 171.726 193.819C172.001 194.601 172.832 195.077 173.654 195.178C174.476 195.278 175.301 195.072 176.103 194.868ZM247.251 220.802C247.518 220.518 246.929 220.221 246.542 220.268C244.336 220.539 242.13 220.809 239.924 221.08C239.629 221.116 239.24 221.278 239.31 221.566C240.035 224.535 239.763 227.737 238.548 230.541C238.317 231.075 238.165 231.89 238.718 232.069C241.019 227.94 243.9 224.135 247.251 220.802ZM172.087 197.107C172.018 196.867 171.94 196.616 171.758 196.446C171.551 196.253 171.251 196.204 170.97 196.173C169.524 196.014 168.051 196.114 166.64 196.465C167.081 197.896 167.523 199.328 167.964 200.76C168.048 201.031 168.161 201.336 168.424 201.442C168.559 201.497 168.709 201.487 168.854 201.477C170.281 201.377 171.708 201.277 173.135 201.177C172.826 199.81 172.476 198.453 172.087 197.107ZM162.796 202.114C162.955 202.201 163.149 202.174 163.327 202.145C164.619 201.934 165.911 201.724 167.203 201.513C166.737 200.019 166.27 198.525 165.804 197.031C165.736 196.812 165.651 196.572 165.449 196.462C165.289 196.376 165.095 196.395 164.914 196.416C163.763 196.549 162.611 196.683 161.459 196.817C161.242 196.842 160.986 196.897 160.906 197.099C160.851 197.237 160.903 197.392 160.954 197.53C161.461 198.9 161.969 200.269 162.476 201.639C162.544 201.822 162.625 202.02 162.796 202.114ZM177.312 196.146C177.038 195.908 176.634 195.925 176.274 195.954C175.136 196.048 173.998 196.141 172.86 196.235C173.2 197.693 173.628 199.13 174.142 200.537C174.209 200.721 174.285 200.915 174.442 201.034C174.637 201.181 174.905 201.173 175.15 201.158C175.927 201.112 176.703 201.065 177.48 201.018C177.838 200.996 178.273 200.92 178.393 200.582C178.45 200.42 178.413 200.241 178.375 200.073C178.139 199.021 177.903 197.969 177.667 196.916C177.604 196.635 177.529 196.334 177.312 196.146ZM170.524 206.62C170.412 206.638 170.292 206.659 170.21 206.738C170.05 206.892 170.123 207.157 170.207 207.362C170.506 208.094 170.805 208.825 171.104 209.557C171.215 209.828 171.34 210.117 171.587 210.274C171.816 210.419 172.104 210.422 172.375 210.42C173.407 210.414 174.44 210.408 175.472 210.402C175.623 210.401 175.787 210.395 175.904 210.299C176.115 210.125 176.036 209.79 175.939 209.533C175.542 208.486 175.145 207.439 174.747 206.392C174.62 206.056 174.152 206.052 173.797 206.107C172.706 206.278 171.615 206.449 170.524 206.62ZM179.21 195.938C178.993 195.939 178.749 195.951 178.603 196.112C178.426 196.305 178.483 196.608 178.549 196.861C178.843 197.971 179.137 199.08 179.43 200.19C179.482 200.385 179.542 200.594 179.698 200.721C179.906 200.891 180.207 200.859 180.472 200.819C181.451 200.669 182.429 200.52 183.408 200.37C183.303 199.234 183.123 198.105 182.869 196.993C182.789 196.646 182.679 196.266 182.378 196.075C182.153 195.932 181.87 195.929 181.603 195.93C180.805 195.933 180.008 195.935 179.21 195.938ZM181.203 210.271C180.885 209.119 180.568 207.968 180.251 206.816C180.13 206.376 179.958 205.877 179.533 205.711C179.323 205.63 179.09 205.648 178.866 205.667C177.822 205.758 176.777 205.849 175.733 205.94C176.008 206.972 176.334 207.99 176.709 208.989C176.898 209.493 177.185 210.063 177.715 210.149C178.867 210.335 180.041 210.376 181.203 210.271ZM183.021 210.191C183.967 210.269 185.006 210.321 185.772 209.759C185.44 208.468 185.108 207.178 184.776 205.888C184.702 205.597 184.602 205.274 184.335 205.135C184.14 205.034 183.905 205.062 183.687 205.092C182.749 205.223 181.811 205.353 180.873 205.484C181.096 206.85 181.475 208.19 181.999 209.471C182.079 209.667 182.17 209.871 182.338 210.001C182.528 210.147 182.782 210.172 183.021 210.191ZM267.383 191.824C268.106 190.34 268.829 188.856 269.552 187.371C269.628 187.215 269.706 187.047 269.678 186.876C269.651 186.709 269.53 186.575 269.414 186.453C268.384 185.364 267.355 184.276 266.326 183.188C265.898 183.772 265.948 184.566 266.016 185.287C266.24 187.653 266.464 190.019 266.688 192.385C267.003 192.455 267.241 192.114 267.383 191.824ZM184.061 195.767C183.926 195.758 183.772 195.755 183.677 195.852C183.571 195.961 183.595 196.137 183.626 196.286C183.829 197.268 184.033 198.251 184.237 199.233C184.312 199.597 184.402 199.986 184.676 200.237C185.565 201.048 187.278 199.653 188.104 200.528C188.25 199.133 188.145 197.712 187.797 196.354C187.773 196.258 187.744 196.157 187.671 196.091C187.586 196.015 187.463 196.004 187.35 195.996C186.253 195.919 185.157 195.843 184.061 195.767ZM163.608 203.053C163.49 203.069 163.366 203.087 163.269 203.156C163.052 203.31 163.061 203.628 163.092 203.891C163.175 204.594 163.266 205.321 163.633 205.925C164.001 206.53 164.727 206.978 165.41 206.794C166.389 206.532 167.368 206.269 168.347 206.007C168.305 205.071 168.115 204.142 167.788 203.264C167.706 203.045 167.604 202.815 167.402 202.696C167.193 202.573 166.932 202.602 166.692 202.634C165.664 202.774 164.636 202.913 163.608 203.053ZM186.444 194.842C186.738 194.797 187.052 194.744 187.271 194.542C187.923 193.939 187.178 192.715 187.707 192.002C187.913 191.723 187.408 191.474 187.061 191.489C185.515 191.554 183.968 191.619 182.422 191.684C182.482 192.324 182.593 192.959 182.754 193.581C182.933 194.275 183.609 194.749 184.309 194.903C185.008 195.057 185.736 194.95 186.444 194.842ZM173.944 203.172C173.744 202.216 172.464 201.992 171.503 202.171C170.543 202.35 169.47 202.697 168.653 202.16C168.705 203.17 168.941 204.17 169.346 205.097C169.431 205.292 169.534 205.495 169.719 205.599C169.928 205.717 170.186 205.68 170.422 205.639C171.369 205.475 172.316 205.312 173.263 205.148C173.732 205.067 174.351 204.696 174.104 204.288C173.907 203.964 174.021 203.544 173.944 203.172ZM168.094 207.1C167.32 207.231 166.546 207.362 165.772 207.493C165.353 207.564 164.837 207.732 164.792 208.154C164.679 209.222 165.744 210.084 166.796 210.297C167.849 210.509 168.942 210.301 170.011 210.407C169.967 209.499 169.777 208.598 169.45 207.75C169.373 207.548 169.281 207.34 169.109 207.207C168.831 206.993 168.44 207.041 168.094 207.1ZM188.485 205.028C187.458 204.919 186.414 204.973 185.404 205.188C185.962 206.517 186.358 207.914 186.582 209.338C186.684 209.991 187.616 210.004 188.257 209.841C188.496 209.78 188.756 209.704 188.893 209.499C189.01 209.322 189.004 209.093 188.994 208.881C188.94 207.708 188.885 206.536 188.83 205.363C188.826 205.289 188.821 205.211 188.779 205.15C188.716 205.06 188.594 205.039 188.485 205.028ZM171.718 215.534C172.687 214.568 172.19 212.617 170.878 212.231C169.566 211.845 168.092 213.216 168.382 214.553C168.683 215.935 170.717 216.533 171.718 215.534ZM179.328 204.206C179.944 203.402 179.022 202.216 178.025 202.041C177.027 201.866 176.016 202.248 175.003 202.233C174.63 202.228 174.615 202.789 174.736 203.142C174.893 203.599 175.05 204.055 175.206 204.512C175.271 204.698 175.387 204.922 175.584 204.91C176.306 204.865 177.028 204.82 177.75 204.774C178.327 204.738 178.977 204.665 179.328 204.206ZM189.309 211.968C189.235 211.766 189.125 211.569 188.951 211.442C188.794 211.328 188.6 211.28 188.408 211.257C186.892 211.074 185.421 212.586 185.645 214.096C186.29 214.862 187.505 215.074 188.371 214.571C189.238 214.068 189.656 212.908 189.309 211.968ZM179.954 202.839C179.921 203.503 180.505 204.07 181.145 204.249C181.786 204.428 182.467 204.312 183.121 204.196C183.456 204.136 183.832 204.049 184.007 203.758C184.382 203.136 183.639 201.995 184.325 201.757C183.864 201.693 183.404 201.63 182.944 201.567C182.337 201.483 181.708 201.401 181.119 201.569C180.529 201.738 179.985 202.226 179.954 202.839ZM185.454 203.689C186.151 204.295 187.318 204.211 187.965 203.552C188.613 202.894 188.698 201.778 188.209 200.994C186.989 201.22 185.769 201.446 184.549 201.673C184.703 202.407 184.887 203.196 185.454 203.689ZM279.726 192.028C278.776 192.38 277.826 192.732 276.876 193.084C276.404 193.258 275.926 193.437 275.517 193.73C277.071 194.336 279.031 193.544 279.726 192.028ZM191.423 116.627C191.398 116.207 190.954 115.864 190.542 115.946C190.568 116.373 190.994 116.732 191.419 116.686L191.423 116.627Z" fill="#00160A"/>
</svg>
