<svg width="31" height="29" viewBox="0 0 31 29" fill="none" xmlns="http://www.w3.org/2000/svg">
<path fill-rule="evenodd" clip-rule="evenodd" d="M28.9318 23.1009C28.3682 24.169 27.5911 25.254 26.4259 25.5718C24.2066 26.1773 22.3715 23.7134 21.7658 21.4941C20.8203 18.0296 21.0595 14.2533 22.4346 10.9359C23.1702 9.16099 22.557 7.06266 21.4036 5.5261C19.2283 2.62825 15.1704 1.35932 11.6837 2.34522C8.1969 3.33113 5.44545 6.43266 4.71603 9.98194C4.60183 10.5376 4.68251 11.3181 5.24431 11.3968C8.04657 11.7891 9.3331 15.0781 9.75972 17.8753C10.0855 20.0112 10.2271 22.249 9.50255 24.2845C8.77803 26.3199 7.00483 28.1078 4.85044 28.2715C2.91715 26.9697 1.46159 24.9743 0.812366 22.7358C-0.395132 18.5725 1.17347 14.1591 2.79299 10.1381C3.78135 7.68415 4.84241 5.17139 6.71993 3.30762C10.7333 -0.676368 18.2276 -0.203421 21.7083 4.2535C23.0472 5.96796 23.8154 8.09768 25.2992 9.68845C26.4177 10.8876 27.8964 11.7268 28.9167 13.0104C31.1329 15.7984 30.5939 19.951 28.9318 23.1009ZM2.04023 15.404C1.02402 18.2047 1.30707 21.4475 2.79313 24.0298C3.03727 24.454 3.32764 24.8759 3.75426 25.1158C4.18088 25.3558 4.77551 25.3595 5.11282 25.0048C6.12336 23.9422 6.24975 22.3355 6.2464 20.8691C6.24245 19.135 6.13552 17.401 5.92636 15.6795C5.84074 14.9748 5.69473 14.1959 5.12485 13.7726C4.55498 13.3494 3.48519 13.7034 3.57468 14.4076C3.83508 16.4567 4.09548 18.5058 4.35589 20.5548C4.41511 21.0209 4.46732 21.5251 4.23374 21.9327C4.00015 22.3403 3.35504 22.5303 3.05933 22.1653C2.29293 20.6015 2.06184 18.7814 2.41313 17.0758C2.53943 16.4626 2.62657 15.6234 2.04023 15.404M25.4984 23.5298C25.7573 23.3278 25.8782 22.9996 25.9749 22.6857C26.7346 20.2187 26.7427 17.5257 25.9979 15.0542C25.7147 14.1145 24.9474 13.0153 24.0178 13.3301C23.4807 13.512 23.2084 14.1001 23.0374 14.6407C22.2602 17.0976 22.3636 19.8231 23.3246 22.2141C23.5087 22.6722 23.7365 23.1354 24.1266 23.438C24.5166 23.7407 25.1092 23.8335 25.4984 23.5298ZM7.25939 14.6636C7.93644 18.095 7.79244 21.6856 6.84276 25.0517C6.75531 25.3617 7.10665 25.6032 7.40109 25.7337C8.82567 22.2784 9.00604 18.3251 7.90201 14.7544C7.71902 14.6237 7.47143 14.5887 7.25939 14.6636ZM27.0243 13.7367C26.8138 14.0726 26.6034 14.4086 26.3929 14.7445C27.0866 14.6271 27.4041 15.5736 27.4412 16.2762C27.5271 17.9003 27.6129 19.5244 27.6987 21.1485C28.3448 20.906 28.4618 20.0579 28.4739 19.3678C28.501 17.814 28.5281 16.2602 28.5552 14.7063C28.3225 14.6791 28.0898 14.6518 27.8571 14.6245C27.8331 14.1843 27.462 13.7887 27.0243 13.7367Z" fill="#00160A"/>
</svg>
