<svg width="24" height="24" viewBox="0 0 24 24" fill="none" xmlns="http://www.w3.org/2000/svg">
<path fill-rule="evenodd" clip-rule="evenodd" d="M2.21315 9.60735C2.00655 7.79961 1.85848 5.8324 0.642948 4.47849C-0.289812 3.43953 0.192687 1.5085 1.50451 1.03039C2.81633 0.552277 4.42821 1.71999 4.38271 3.11548C4.3671 3.5946 4.19269 4.05177 4.05695 4.51152C3.13005 7.65114 3.99066 11.0292 5.12414 14.1003C6.27203 17.2104 8.02902 20.5208 11.1826 21.5431C14.8308 22.7258 18.8679 20.1085 20.485 16.631C22.1021 13.1535 21.8559 9.11584 21.2912 5.32255C21.2346 4.942 21.1326 4.50273 20.7833 4.34146C19.3642 3.68632 19.1488 1.38428 20.4218 0.477268C21.6948 -0.429744 23.8003 0.525517 23.9561 2.08076C24.009 2.60829 23.8745 3.13384 23.774 3.65439C23.0768 7.26672 23.9987 11.0541 23.2347 14.6529C22.7564 16.9063 21.6096 19.0134 19.977 20.6386C18.2459 22.3619 15.908 23.5501 13.4657 23.5915C10.177 23.6474 7.10154 21.6078 5.24273 18.8943C3.38391 16.1807 2.58663 12.8752 2.21315 9.60735Z" fill="#00160A"/>
</svg>
