<svg width="56" height="9" viewBox="0 0 56 9" fill="none" xmlns="http://www.w3.org/2000/svg">
<path fill-rule="evenodd" clip-rule="evenodd" d="M1.4639 6.38975C1.20213 5.1223 0.94035 3.85485 0.678573 2.5874C0.576833 2.0948 0.483282 1.54805 0.741626 1.11648C1.09387 0.528034 1.89994 0.449683 2.58565 0.437748C19.4236 0.144685 36.2678 0.208768 53.1031 0.629939C54.2517 0.658674 55.1948 1.6504 55.5441 2.74495C55.8935 3.8395 55.7786 5.02104 55.6601 6.16387C55.5961 6.78132 55.4941 7.46991 55.0017 7.84792C54.5984 8.15752 54.0476 8.16539 53.5392 8.15984C36.6296 7.97522 19.72 7.7906 2.81039 7.60599C2.53199 7.60295 2.23745 7.59538 2.00182 7.44707C1.65733 7.23025 1.54624 6.78838 1.4639 6.38975ZM3.78963 1.54942C2.54498 1.54045 1.66261 3.01892 1.97353 4.22414C2.28446 5.42936 3.44891 6.25892 4.65861 6.55195C5.86831 6.84497 7.13475 6.70354 8.37403 6.58769C23.6446 5.1602 39.0864 7.88844 54.3461 6.3488C54.4259 5.42039 54.5021 4.46063 54.2031 3.57807C53.9041 2.69552 53.1251 1.90487 52.1933 1.89816C36.0587 1.78191 19.9242 1.66567 3.78963 1.54942Z" fill="#00160A"/>
</svg>
