<svg width="29" height="30" viewBox="0 0 29 30" fill="none" xmlns="http://www.w3.org/2000/svg">
<path fill-rule="evenodd" clip-rule="evenodd" d="M26.8764 24.6931C26.4512 19.2167 26.0259 13.7403 25.6007 8.26384C25.5382 7.4589 25.4669 6.62429 25.0683 5.92219C24.6698 5.22009 23.8439 4.69107 23.0641 4.90027C19.5363 5.84672 15.8728 6.28554 12.2213 6.199C9.02836 6.12334 5.76158 5.65686 2.68977 6.5312C2.74689 8.05228 2.804 9.57336 2.86112 11.0944C2.87779 11.5386 2.90305 12.0097 3.15571 12.3753C3.86405 13.4003 5.62268 12.6192 6.02215 11.439C6.42163 10.2588 6.06089 8.96791 6.12943 7.72382C6.14158 7.50334 6.18568 7.25285 6.37321 7.13626C6.7717 6.8885 7.15456 7.47997 7.25678 7.93793C7.54972 9.25032 7.84211 10.6242 7.49639 11.9237C7.15066 13.2232 5.9452 14.4007 4.61154 14.2289C3.22963 14.0508 2.66409 15.9394 2.63065 17.3324C2.56392 20.1124 2.49718 22.8923 2.43044 25.6723C2.40944 26.5473 2.72424 27.7561 3.59392 27.6575C5.839 27.403 8.08408 27.1485 10.3292 26.8939C10.8717 26.8324 11.4553 26.7785 11.9325 27.0439C12.4097 27.3093 12.6621 28.0319 12.271 28.413C9.63405 28.6441 6.99708 28.8751 4.36011 29.1062C3.58997 29.1737 2.79079 29.2377 2.06417 28.9736C1.33756 28.7096 0.704829 28.0183 0.770894 27.2481C1.41952 19.6856 1.56468 12.08 1.2051 4.49835C1.1286 2.88531 3.09322 2.06655 4.68042 1.76896C9.71794 0.824457 14.8556 0.414834 19.9791 0.549201C21.6968 0.594248 23.5692 0.764372 24.8149 1.94796C26.0831 3.15298 26.3321 5.05164 26.5069 6.7923C27.1623 13.3161 27.8177 19.8399 28.4731 26.3638C28.5084 26.7156 28.5168 27.1339 28.2354 27.348C28.0675 27.4757 27.8421 27.4895 27.6313 27.4982C25.4447 27.5892 23.2581 27.6801 21.0715 27.771C19.9129 27.8191 18.6662 27.844 17.7016 27.2004C17.0401 26.759 16.6028 26.058 16.2185 25.3616C15.2967 23.6914 14.5601 21.919 14.0265 20.0874C13.1901 22.1812 12.6607 24.3974 12.4602 26.6431C11.4035 26.7574 11.2069 25.1719 11.4526 24.1377C11.9596 22.004 12.4665 19.8702 12.9735 17.7364C13.0507 17.4116 13.1738 17.0349 13.4922 16.9346C13.9609 16.7871 14.3207 17.3485 14.4921 17.809C15.2062 19.7281 15.9204 21.6472 16.6345 23.5663C17.2492 25.218 19.0219 26.2108 20.7725 26.4142C22.5231 26.6175 24.2773 26.1768 25.9846 25.7397C26.3223 25.6533 26.7057 25.5287 26.837 25.2058C26.9022 25.0455 26.8898 24.8657 26.8764 24.6931ZM3.08844 4.64172C4.6718 4.66221 6.25516 4.6827 7.83853 4.7032C9.02824 4.71859 10.2182 4.73399 11.4078 4.71156C15.7021 4.63058 19.9869 4.05457 24.1501 2.99858C23.2215 2.0453 21.7317 1.9916 20.4011 2.01541C15.6388 2.10064 10.88 2.37767 6.13995 2.8456C4.87148 2.97082 3.29515 3.38396 3.08844 4.64172L3.08844 4.64172Z" fill="#00160A"/>
</svg>
