<svg width="29" height="28" viewBox="0 0 29 28" fill="none" xmlns="http://www.w3.org/2000/svg">
<path fill-rule="evenodd" clip-rule="evenodd" d="M0.301326 16.7037C0.354949 15.4529 0.408572 14.2022 0.462195 12.9514C0.566757 10.5125 0.694808 7.98256 1.82831 5.82055C2.96182 3.65853 5.40872 1.97849 7.78434 2.54024C9.27046 2.89166 10.6406 4.0597 12.1352 3.74614C13.4366 3.47311 14.2348 2.18657 15.3342 1.43851C17.9549 -0.344662 21.6078 1.31178 23.7751 3.62488C26.111 6.11786 27.6293 9.36466 28.0451 12.7556C28.0804 13.0433 28.0981 13.3667 27.9129 13.5898C27.7595 13.7745 27.5081 13.8384 27.2741 13.892C26.3719 14.0986 25.4698 14.3053 24.5676 14.512C23.7994 14.6879 23.0022 14.8645 22.2304 14.7048C21.4587 14.5451 20.7175 13.9498 20.6553 13.1642C20.4249 17.555 23.713 21.7494 22.7968 26.0497C22.4561 25.8635 22.1155 25.6774 21.7749 25.4913C22.5787 21.1786 18.7354 17.0042 19.5379 12.6913C19.6441 12.1206 19.8731 11.513 20.3834 11.2361C20.8936 10.9592 21.7005 11.2739 21.6805 11.854C21.6485 12.7835 22.6517 13.4781 23.5817 13.4701C24.5118 13.4621 25.3575 12.9634 26.1521 12.48C26.4352 12.3078 26.3577 11.8822 26.2397 11.5725C25.3604 9.26577 24.2044 7.06459 22.8044 5.03127C21.8581 3.65693 20.7179 2.2983 19.1454 1.74024C17.5729 1.18218 15.4961 1.75159 14.9173 3.31657C14.2398 5.14832 11.6795 5.27191 9.79924 4.7437C7.919 4.21549 5.80869 3.39081 4.13118 4.39094C2.72842 5.22727 2.25878 7.0089 1.99597 8.62077C1.54511 11.386 1.33698 14.1907 1.37477 16.9922C1.45091 17.4199 1.9959 17.5577 2.43012 17.5464C4.71724 17.4871 6.84084 15.6832 7.26922 13.4357C7.88568 14.1446 8.10563 15.1048 8.305 16.0228C8.99535 19.2016 9.68569 22.3803 10.376 25.5591C10.5886 26.5376 10.3405 28.0416 9.35505 27.8636C8.90864 24.3967 8.24722 20.9574 7.37587 17.5722C5.72865 17.9467 4.08142 18.3213 2.4342 18.6958C1.92885 18.8107 1.3633 18.9168 0.921032 18.6467C0.310659 18.2738 0.27069 17.4183 0.301326 16.7037Z" fill="#00160A"/>
</svg>
