<svg width="46" height="9" viewBox="0 0 46 9" fill="none" xmlns="http://www.w3.org/2000/svg">
<path fill-rule="evenodd" clip-rule="evenodd" d="M0.824713 4.10009C0.605421 2.85293 1.4656 1.61352 2.57389 1.00101C3.68219 0.388499 4.98853 0.27031 6.25263 0.195931C17.5232 -0.467219 28.776 1.34286 40.0503 1.93785C41.5015 2.01443 43.0314 2.0946 44.2522 2.88294C45.4729 3.67129 46.1896 5.44051 45.3451 6.62309C44.9367 7.19498 44.2613 7.51273 43.5912 7.72441C41.6582 8.33499 39.5842 8.25397 37.559 8.16691C27.0189 7.71379 16.4789 7.26067 5.93885 6.80756C3.84624 6.71759 1.18744 6.16298 0.824713 4.10009M2.27132 2.29274C1.67571 3.13203 2.17423 4.38427 3.03467 4.9489C3.89511 5.51352 4.97926 5.57712 6.00737 5.62339C17.1779 6.12609 28.3484 6.62879 39.5189 7.13149C40.6073 7.18047 41.8127 7.19125 42.6374 6.4792C43.462 5.76716 43.3531 4.06898 42.2771 3.8979C29.8557 1.92295 17.2509 1.10278 4.67829 1.45139C3.79557 1.47587 2.78238 1.57259 2.27132 2.29274" fill="#00160A"/>
</svg>
