<svg width="39" height="9" viewBox="0 0 39 9" fill="none" xmlns="http://www.w3.org/2000/svg">
<path fill-rule="evenodd" clip-rule="evenodd" d="M38.4899 1.03749C39.3303 1.94848 38.0243 3.62982 38.7944 4.60098C39.1939 5.1048 38.909 5.90446 38.3797 6.26957C37.8504 6.63468 37.1724 6.68387 36.5304 6.72117C25.4948 7.36241 14.4592 8.00365 3.42357 8.64489C2.67339 8.68848 1.77726 8.66292 1.3671 8.0333C1.18799 7.75835 1.14473 7.4195 1.10603 7.09365C1.00529 6.2456 0.90456 5.39755 0.803828 4.5495C0.772215 4.28336 0.743871 3.99811 0.869036 3.76113C1.07545 3.3703 1.58808 3.28555 2.02836 3.24669C13.6263 2.22287 25.2381 1.35743 36.8596 0.6507C37.437 0.615588 38.0977 0.61234 38.4899 1.03749ZM37.2233 2.47004C37.1875 2.26077 37.1402 2.03171 36.9729 1.90102C36.8061 1.77071 36.5732 1.7799 36.362 1.79529C26.0718 2.5454 15.7816 3.29551 5.49142 4.04562C4.65966 4.10625 3.79696 4.17586 3.07051 4.58547C2.34407 4.99508 1.79632 5.84898 2.0144 6.65392C2.08191 6.9031 2.22595 7.14007 2.4467 7.27391C2.71758 7.43816 3.05585 7.42616 3.37217 7.409C14.2363 6.81969 25.1005 6.23037 35.9646 5.64106C37.2561 5.571 37.4418 3.74485 37.2233 2.47004Z" fill="#00160A"/>
</svg>
