<svg width="64" height="69" viewBox="0 0 64 69" fill="none" xmlns="http://www.w3.org/2000/svg">
<path fill-rule="evenodd" clip-rule="evenodd" d="M61.0331 50.8315C60.8292 47.0525 60.6254 43.2735 60.4215 39.4945C59.8728 29.3232 59.3071 19.0476 56.4757 9.26294C56.1142 8.01376 55.7012 6.74555 54.9004 5.72095C52.8956 3.15586 49.1846 2.86089 45.929 2.86104C33.3767 2.86161 20.8248 4.0553 8.49752 6.42078C7.24483 6.66116 5.9426 6.93688 4.94308 7.72933C3.35488 8.9885 2.93615 11.2017 2.78866 13.2231C2.5194 16.9134 2.78603 20.6425 3.57759 24.257C3.12457 24.1814 2.67155 24.1058 2.21853 24.0303C0.557464 20.5707 -0.19928 16.6817 0.0433412 12.8517C0.148695 11.1886 0.454594 9.4949 1.31156 8.06569C3.44306 4.51086 8.13496 3.65787 12.2563 3.21649C22.7129 2.09663 33.2087 1.34235 43.7181 0.955506C47.9482 0.799794 52.7281 0.918431 55.6312 3.99901C57.0916 5.54859 57.8311 7.63091 58.4116 9.6795C60.4283 16.7961 60.9848 24.2324 61.5311 31.609C62.0648 38.8164 62.5986 46.0238 63.1323 53.2313C63.2578 54.9254 63.3817 56.6455 63.0389 58.3094C61.9221 63.7304 56.1488 67.0281 50.6529 67.6837C45.157 68.3393 39.6238 67.0833 34.0897 66.9911C26.6473 66.8671 19.1609 68.8461 11.8209 67.6098C9.7069 67.2537 7.45888 66.5048 6.29676 64.7033C5.49064 63.4537 5.34517 61.9043 5.22176 60.4224C4.35126 49.9686 3.48075 39.5149 2.61024 29.0611C2.55196 28.3612 3.07251 27.3176 3.61021 27.7695C4.57 37.8389 5.52979 47.9083 6.48958 57.9777C6.61952 59.3409 6.76065 60.7432 7.3943 61.9571C8.3141 63.7193 10.1699 64.8398 12.0941 65.3386C14.0183 65.8375 16.0351 65.797 18.0227 65.771C26.4319 65.6611 34.8452 65.8705 43.2385 66.3986C46.0454 66.5751 48.8825 66.786 51.6553 66.315C54.428 65.844 57.1792 64.6085 58.9003 62.3841C61.3516 59.2162 61.2488 54.8312 61.0331 50.8315Z" fill="#00160A"/>
</svg>
