<svg width="49" height="25" viewBox="0 0 49 25" fill="none" xmlns="http://www.w3.org/2000/svg">
<path fill-rule="evenodd" clip-rule="evenodd" d="M33.0883 3.98377C33.5706 3.06724 34.0942 2.10585 34.9815 1.57164C35.8688 1.03744 37.2301 1.14787 37.7079 2.06681C38.2163 3.04481 37.4598 4.22373 36.5716 4.8765C35.6834 5.52927 34.5912 5.98943 34.0142 6.92862C37.1331 8.98383 40.252 11.039 43.3709 13.0942C45.8138 14.7039 48.5778 17.003 48.0778 19.8854C47.7846 21.5755 46.3522 22.8893 44.757 23.5198C43.1618 24.1502 41.4078 24.2161 39.6933 24.2655C28.1699 24.5973 16.6352 24.5388 5.1158 24.0902C4.31659 24.0591 3.4252 23.9846 2.89278 23.3878C2.4803 22.9253 2.39513 22.2658 2.32851 21.6497C1.66549 15.5184 1.00246 9.38715 0.33943 3.25585C0.314939 3.02937 0.291623 2.79287 0.372732 2.58C0.713798 1.68486 2.05307 2.23629 2.80175 2.83387C8.10454 7.0664 16.5821 6.56916 21.3537 1.74571C22.5067 0.580216 24.4694 0.730874 25.9506 1.43359C27.4318 2.13631 28.6711 3.27945 30.157 3.97208C29.9985 3.11295 30.7561 2.20649 31.6297 2.20997C32.5033 2.21345 33.2536 3.12593 33.0883 3.98377Z" fill="white"/>
</svg>
