<svg width="171" height="237" viewBox="0 0 171 237" fill="none" xmlns="http://www.w3.org/2000/svg">
<path fill-rule="evenodd" clip-rule="evenodd" d="M1.52191 27.3133C1.52191 27.3133 0.234718 11.8948 3.47476 6.93841C6.7148 1.98198 19.0566 0.489738 19.0566 0.489738C19.0566 0.489738 52.8834 0.0476733 71.1599 0.746305C89.4365 1.44494 125.989 4.57728 125.989 4.57728C125.989 4.57728 130.738 5.61328 132.873 6.93841C135.008 8.26354 137.986 12.0238 137.986 12.0238C137.986 12.0238 144.467 12.9685 147.691 13.097C150.914 13.2254 153.868 12.6566 153.868 12.6566C153.868 12.6566 157.977 24.6387 155.072 30.3497C152.167 36.0608 142.416 35.1752 142.416 35.1752L145.868 56.5486C145.868 56.5486 141.763 58.4883 139.52 60.9203C137.277 63.3523 136.376 66.8394 136.376 66.8394L143.043 131.844C143.043 131.844 145.004 135.223 149.217 136.506C153.43 137.79 162.921 137.899 162.921 137.899C162.921 137.899 162.582 144.454 162.921 147.274C163.259 150.095 163.561 151.641 163.561 151.641L170.707 202.796C170.707 202.796 163.761 204.06 156.889 205.727C150.016 207.394 136.376 211.125 136.376 211.125C136.376 211.125 131.568 213.317 130.946 216.857C130.323 220.396 132.873 231.033 132.873 231.033L56.302 236.869C56.302 236.869 48.8506 237.01 46.2876 235.395C43.7246 233.78 43.0222 228.502 43.0222 228.502L32.6652 135.35C32.6652 135.35 16.1148 135.755 11.2811 132.995C6.44731 130.235 5.86274 120.046 5.86274 120.046C5.86274 120.046 6.66579 114.271 5.86274 110.264C5.59477 108.926 2.09435 94.4307 0.918407 80.6379C0.252989 72.8332 9.43685 66.8394 9.43685 66.8394L1.52191 27.3133Z" fill="white"/>
</svg>
